<svg width="46" height="46" viewBox="0 0 46 46" fill="none" xmlns="http://www.w3.org/2000/svg">
<path d="M23 45C35.1503 45 45 35.1503 45 23C45 10.8497 35.1503 1 23 1C10.8497 1 1 10.8497 1 23C1 35.1503 10.8497 45 23 45Z" stroke="white" stroke-width="2"/>
<path d="M13.1209 20.0002C12.3609 19.7602 11.5909 19.6602 10.9509 19.6602C9.15086 19.6602 8.38086 20.4002 8.38086 21.6502C8.38086 22.9602 9.22086 23.5202 10.6909 23.8702C11.6609 24.1102 12.1109 24.2402 12.1109 24.8202C12.1109 25.5802 11.7309 25.8902 10.8409 25.8902C10.1209 25.8902 9.41086 25.7802 8.52086 25.6102V26.6802C9.29086 26.9102 10.1309 27.0402 10.8509 27.0502C12.5009 27.0802 13.4909 26.3202 13.4909 24.8002C13.4909 23.5102 12.6909 23.0802 11.2209 22.7102C10.1509 22.4402 9.77086 22.3102 9.77086 21.6402C9.77086 20.9202 10.3709 20.8202 11.0509 20.8202C11.6509 20.8202 12.3509 20.8802 13.1209 21.0802V20.0002Z" fill="white"/>
<path d="M14.1289 20.89H16.3589V27H17.7389V20.89H19.7589L20.2089 19.73H14.1289V20.89Z" fill="white"/>
<path d="M24.7209 27H26.1209L23.7709 19.73H22.0709L19.7109 27H21.1109L21.6609 25.25H24.1709L24.7209 27ZM22.9209 21.3L23.8009 24.1H22.0309L22.9209 21.3Z" fill="white"/>
<path d="M30.8835 27H32.4335L30.9035 24.26C31.1335 24.17 31.3235 24.06 31.4835 23.91C31.8935 23.54 32.0935 22.93 32.0935 22.08C32.0935 20.36 31.2935 19.73 29.6335 19.73H26.8535V27H28.2235V24.46H29.4835L30.8835 27ZM28.2235 23.3V20.89H29.5435C30.3435 20.89 30.7135 21.2 30.7135 22.08C30.7135 22.93 30.3435 23.3 29.5435 23.3H28.2235Z" fill="white"/>
<path d="M32.6445 20.89H34.8745V27H36.2545V20.89H38.2745L38.7245 19.73H32.6445V20.89Z" fill="white"/>
</svg>