<svg width="236" height="26" viewBox="0 0 236 26" fill="none" xmlns="http://www.w3.org/2000/svg">
    <path d="M51.8143 21.0543C50.8393 21.0543 50.4214 20.3478 50.4214 19.5V14.6957H71.0357L70.4786 9.8913H50.2821V8.19565C50.2821 7.63043 50.8393 6.92391 51.3964 6.5C51.675 6.28804 51.8839 6.07609 52.0929 5.86413C52.3018 5.65217 52.5107 5.44022 52.7893 5.22826C53.2071 4.94565 53.625 4.66304 54.4607 4.66304H77.1643L77.8607 0H51.8143C49.725 0 48.75 0.282609 47.775 0.706522C47.5209 0.817009 47.1627 0.956293 46.7497 1.11687C45.5783 1.57238 43.9661 2.19925 43.0393 2.82609C41.2286 3.95652 39.8357 4.94565 39.8357 7.34783V21.0543H11.9786C11.2821 21.0543 10.5857 20.7717 10.5857 19.6413V8.05435C10.5857 7.34783 11.2821 6.6413 11.9786 6.3587C12.3964 6.14674 12.8839 5.93478 13.3714 5.72283C13.8589 5.51087 14.3464 5.29891 14.7643 5.08696C14.8439 5.06677 14.9292 5.0437 15.0205 5.01898C15.5687 4.87067 16.3362 4.66304 17.4107 4.66304H37.7464L38.3036 0H12.8143C11.5607 0 8.775 0.423913 7.24286 1.13043C5.71071 1.83696 3.06429 3.1087 1.95 3.67391C0.835714 4.38043 0 5.22826 0 7.06522V20.6304C0 24.587 3.20357 26 7.66071 26H78L77.1643 21.0543H51.8143Z" fill="white"/>
    <path fill-rule="evenodd" clip-rule="evenodd" d="M145.022 0H129.521C126.777 0 125.405 0.565217 124.582 0.98913C123.924 1.32826 123.117 1.82001 122.311 2.31175C121.773 2.63957 121.235 2.96739 120.741 3.25C119.37 4.09783 118.821 4.94565 118.821 5.93478V21.1957C118.821 21.1957 110.728 15.4022 109.63 14.5543C108.67 13.8478 109.767 13.1413 109.767 13.1413L115.254 9.32609C115.254 9.32609 117.724 8.05435 117.449 4.66304C117.312 1.27174 112.237 0 110.179 0H80V25.8587H90.4254V4.66304H104.143C104.829 4.66304 105.789 5.08696 105.789 5.79348C105.789 6.5 105.241 7.06522 104.829 7.34783C104.718 7.42378 104.271 7.69363 103.638 8.07512C101.917 9.11312 98.8258 10.9776 97.4214 12.0109C95.501 13.4239 96.4612 15.4022 97.2843 16.1087C98.2445 16.9565 109.905 26 109.905 26H129.246V14.9783H145.159V26H155.996V5.36957C156.133 0.706522 152.841 0 145.022 0ZM146.942 11.3043H129.384V7.63043C129.384 6.3587 130.618 5.79348 130.618 5.79348L132.95 4.66304C132.95 4.66304 133.773 4.09783 135.694 4.09783H144.199C146.394 4.09783 146.942 5.51087 146.942 6.92391V11.3043Z" fill="white"/>
    <path fill-rule="evenodd" clip-rule="evenodd" d="M158 0H227.643C234.468 0 236 2.98361 236 5.39891V20.0328C236 24.7213 231.404 25.8579 227.643 25.8579H205.636C199.089 25.8579 197 22.5902 197 20.0328V7.67213C197 5.39891 198.671 4.68852 198.671 4.68852H183.35V26H172.904V4.68852H158V0ZM224.718 22.306C226.946 22.306 228.339 21.5956 228.339 19.1803V6.6776C228.339 5.25683 226.807 4.2623 224.3 4.2623H213.296C211.625 4.2623 210.929 4.97268 210.929 4.97268L208.839 6.25137C208.839 6.25137 207.586 6.96175 207.586 8.66667V20.8852C207.586 22.0219 208.979 22.306 209.814 22.306H224.718Z" fill="white"/>
</svg>