<svg width="30" height="30" viewBox="0 0 30 30" fill="none" xmlns="http://www.w3.org/2000/svg" preserveAspectRatio="xMidYMid" data-v-9bbc42a4="" class="">
    <circle cx="15" cy="15" r="14.25" stroke="currentColor" stroke-width="1.5"></circle>
    <path fill-rule="evenodd" clip-rule="evenodd" d="M12.217 8.29c.72-.032.95-.04 2.784-.04h-.002c1.833 0 2.062.008 2.783.04.718.034 1.209.147 1.64.314a3.3 3.3 0 011.195.779c.375.375.606.752.779 1.196.166.429.28.92.313 1.638.033.72.041.95.041 2.783s-.008 2.063-.04 2.783c-.035.718-.148 1.209-.314 1.638-.173.444-.404.82-.78 1.196a3.302 3.302 0 01-1.194.779c-.43.167-.92.28-1.64.313-.72.033-.949.041-2.782.041-1.833 0-2.063-.008-2.783-.04-.719-.034-1.21-.147-1.639-.314a3.305 3.305 0 01-1.195-.78 3.307 3.307 0 01-.779-1.195c-.166-.43-.28-.92-.313-1.638-.033-.72-.041-.95-.041-2.783s.008-2.063.04-2.783c.033-.719.147-1.21.314-1.639.173-.444.404-.82.78-1.195a3.305 3.305 0 011.195-.779c.43-.167.92-.28 1.638-.313zm2.558 1.177h-.381v-.002c-1.258.002-1.5.01-2.122.038-.658.03-1.015.14-1.253.233-.315.122-.54.269-.777.505a2.092 2.092 0 00-.505.776c-.092.238-.202.595-.232 1.254-.033.711-.04.924-.04 2.726 0 1.803.007 2.017.04 2.728.03.658.14 1.015.232 1.253.123.315.27.54.505.776.237.236.462.383.777.505.238.092.595.202 1.253.232.712.033.925.04 2.728.04 1.802 0 2.016-.007 2.727-.04.658-.03 1.016-.14 1.253-.232.316-.122.54-.269.776-.505s.383-.46.505-.775c.093-.238.203-.595.233-1.253.032-.712.04-.926.04-2.727 0-1.802-.008-2.015-.04-2.727-.03-.658-.14-1.015-.233-1.253a2.095 2.095 0 00-.505-.776 2.087 2.087 0 00-.776-.505c-.238-.092-.595-.202-1.253-.232-.712-.033-.925-.04-2.727-.04h-.225z" fill="currentColor"></path><path fill-rule="evenodd" clip-rule="evenodd" d="M18.604 10.587a.81.81 0 100 1.62.81.81 0 000-1.62zM11.534 15a3.467 3.467 0 116.933 0 3.467 3.467 0 01-6.933 0zm5.714 0a2.25 2.25 0 10-4.5 0 2.25 2.25 0 004.5 0z" fill="currentColor"></path>
</svg>