<svg width="30" height="30" viewBox="0 0 30 30" fill="none" xmlns="http://www.w3.org/2000/svg" preserveAspectRatio="xMidYMid" data-v-9bbc42a4="" class="">
    <circle cx="15" cy="15" r="14.25" stroke="currentColor" stroke-width="1.5"></circle>
    <path fill-rule="evenodd" clip-rule="evenodd" d="M15.662 19.528s.244-.026.368-.158c.115-.12.11-.348.11-.348s-.014-1.062.488-1.219c.495-.154 1.131 1.027 1.806 1.482.51.343.897.268.897.268l1.803-.025s.943-.057.496-.784c-.037-.06-.261-.54-1.34-1.523-1.132-1.03-.98-.863.382-2.645.829-1.085 1.16-1.747 1.057-2.03-.099-.271-.709-.2-.709-.2l-2.03.013s-.15-.02-.262.045c-.109.064-.18.214-.18.214s-.32.84-.749 1.554c-.904 1.506-1.265 1.586-1.413 1.492-.344-.218-.258-.876-.258-1.343 0-1.46.226-2.07-.439-2.227-.22-.052-.383-.086-.947-.092-.725-.008-1.338.002-1.685.169-.23.11-.41.358-.3.373.134.017.438.08.599.295.208.278.2.902.2.902s.12 1.718-.279 1.932c-.273.146-.648-.153-1.454-1.52a12.6 12.6 0 01-.725-1.473s-.06-.145-.168-.223c-.13-.094-.311-.123-.311-.123l-1.929.012s-.29.008-.396.132c-.094.11-.007.337-.007.337s1.51 3.468 3.22 5.216c1.568 1.602 3.348 1.497 3.348 1.497h.807z" fill="currentColor">
</path></svg>