<svg width="70" height="35" fill="none" xmlns="http://www.w3.org/2000/svg">
    <path d="M40.61 24.2c0 .12.04.2.13.2.06 0 .1-.03.16-.07l21.81-13.78c.39-.24.74-.37 1.26-.37h4.8c.73 0 1.23.48 1.23 1.2v8.89c0 1.07-.24 1.69-1.23 2.26l-5.82 3.4a.4.4 0 01-.2.07c-.06 0-.12-.05-.12-.25V15.37c0-.12-.04-.2-.12-.2-.06 0-.11.02-.17.06L46.39 25.3c-.44.28-.8.36-1.22.36H34.6c-.74 0-1.24-.48-1.24-1.2v-12.8c0-.1-.05-.18-.12-.18-.06 0-.1.02-.17.06l-10.51 6.14c-.11.06-.14.12-.14.17 0 .04.01.08.1.15l7.5 7.3c.1.09.18.17.18.24 0 .08-.11.13-.25.13h-6.79c-.53 0-.94-.08-1.23-.36l-4.56-4.43c-.05-.05-.08-.07-.13-.07-.04 0-.1.02-.15.04l-7.61 4.46c-.46.27-.78.35-1.24.35h-7c-.74 0-1.24-.48-1.24-1.2v-8.73c0-1.08.24-1.69 1.23-2.26l5.85-3.42a.3.3 0 01.16-.05c.09 0 .13.1.13.28v11.68c0 .12.04.18.12.18.05 0 .11-.04.17-.08l19.77-11.54c.47-.27.76-.36 1.3-.36h10.64c.74 0 1.23.49 1.23 1.2l.01 12.83z" fill="white"></path>
</svg>