<svg width="70" height="35" viewBox="0 0 70 35" fill="none" xmlns="http://www.w3.org/2000/svg">
<path d="M40.6147 24.1909C40.6147 24.3201 40.651 24.3906 40.7356 24.3906C40.7961 24.3906 40.8444 24.3671 40.9049 24.3319L62.7111 10.5521C63.0979 10.3054 63.4485 10.1762 63.9682 10.1762H68.7671C69.5044 10.1762 70 10.6579 70 11.3744V20.2673C70 21.3363 69.7582 21.9589 68.7671 22.5345L62.9529 25.9295C62.8803 25.9765 62.8078 26 62.7594 26C62.6869 26 62.6265 25.953 62.6265 25.7533V15.3686C62.6265 15.2511 62.5902 15.1689 62.5056 15.1689C62.4452 15.1689 62.3968 15.1924 62.3364 15.2276L46.3927 25.2952C45.9454 25.5771 45.5828 25.6593 45.1718 25.6593H34.5951C33.8577 25.6593 33.3621 25.1777 33.3621 24.4611V11.6564C33.3621 11.5624 33.3138 11.4802 33.2412 11.4802C33.1808 11.4802 33.1324 11.5037 33.072 11.5389L22.5557 17.6828C22.4469 17.7416 22.4227 17.8003 22.4227 17.8473C22.4227 17.8943 22.4348 17.9295 22.5194 18L30.0259 25.2952C30.1226 25.3891 30.1951 25.4714 30.1951 25.5419C30.1951 25.6241 30.0863 25.6711 29.9534 25.6711H23.1601C22.6282 25.6711 22.2172 25.5888 21.9271 25.3069L17.3701 20.8781C17.3217 20.8311 17.2854 20.8076 17.2371 20.8076C17.2008 20.8076 17.1404 20.8311 17.092 20.8546L9.47677 25.3069C9.01744 25.5771 8.70316 25.6593 8.24383 25.6593H1.23295C0.495597 25.6593 0 25.1777 0 24.4611V15.7327C0 14.652 0.241755 14.0411 1.23295 13.4655L7.0834 10.047C7.14384 10.0117 7.19219 10 7.24055 10C7.32516 10 7.37351 10.094 7.37351 10.2819V21.9589C7.37351 22.0764 7.40977 22.1351 7.49439 22.1351C7.54274 22.1351 7.60318 22.0999 7.66362 22.0646L27.427 10.5169C27.8985 10.2467 28.1886 10.1645 28.7325 10.1645H39.3697C40.1071 10.1645 40.6027 10.6461 40.6027 11.3627L40.6147 24.1909Z" fill="white"/>
</svg>
