<svg width="80" height="40" viewBox="0 0 80 40" fill="none" xmlns="http://www.w3.org/2000/svg"
    preserveAspectRatio="xMidYMid" class="block" data-v-34169bb3="">
    <path fill-rule="evenodd" clip-rule="evenodd"
        d="M52.339 10.05v.78h.434c.366 0 .631.25.631.585 0 .118-.03.225-.059.309l-6.066 18.21a.194.194 0 00.033.174.158.158 0 00.13.064h4.728c.14 0 .295-.123.35-.271l4.032-12.756c.034-.132.16-.348.417-.348s.38.216.413.34l4.07 12.75c.064.162.219.285.358.285h4.728c.06 0 .097-.017.127-.06.042-.055.05-.14.037-.17L60.13 10.194c-.033-.072-.096-.144-.362-.144h-7.428zM38.572 29.98a.2.2 0 01-.201-.204v-18.5c0-.355-.28-.639-.628-.639h-.477v-.78h6.089c.112 0 .2.093.2.208v19.711a.2.2 0 01-.2.203h-4.783z"
        fill="#ffffff" data-v-34169bb3=""></path>
    <path fill-rule="evenodd" clip-rule="evenodd"
        d="M.667 19.998C.667 8.955 18.279 0 40.002 0c21.723 0 39.331 8.955 39.331 19.998C79.333 31.045 61.725 40 40.003 40 18.278 40 .666 31.045.666 19.998zm39.33-17.906c-19.408 0-35.14 8.015-35.14 17.906 0 9.895 15.732 17.91 35.14 17.91 19.413 0 35.147-8.015 35.147-17.91 0-9.891-15.734-17.906-35.146-17.906z"
        fill="#ffffff" data-v-34169bb3=""></path>
    <path fill-rule="evenodd" clip-rule="evenodd"
        d="M27.675 29.98c-.151 0-.406-.14-.556-.373l-5.503-7.816c-.067-.101-.2-.292-.478-.292-.217 0-.439.152-.439.496v7.781a.2.2 0 01-.2.203h-4.65c-.108 0-.2-.089-.2-.203v-18.5c0-.355-.28-.639-.628-.639h-.523v-.78h6c.11 0 .201.093.201.208v6.569c0 .259.188.449.44.449.07 0 .301-.025.502-.33l4.553-6.518c.154-.234.414-.378.565-.378h5.243c.08 0 .125.073.138.093.025.047.041.124.004.187L26.298 18.9l-.008.013a.84.84 0 00-.113.373c0 .098.033.237.154.398.453.648 6.951 9.956 6.972 9.98.054.081.063.149.034.213-.034.063-.1.101-.139.101h-5.523z"
        fill="#ffffff" data-v-34169bb3=""></path>
</svg>