<svg version="1.1" xmlns="http://www.w3.org/2000/svg" xmlns:xlink="http://www.w3.org/1999/xlink">
    <symbol id="file" viewBox="0 0 20 20">
        <path d="M2.75.75h9.94l4.56 4.56v13.94H2.75V.75z" stroke-width="1.5"></path>
        <path d="M12.5 1v5h4" stroke-width="1.5"></path>
    </symbol>
    <symbol id="plus" viewBox="0 0 20 20">
        <path d="M10 5v10M5 10h10" stroke-width="2" />
    </symbol>
    <symbol id="check" viewBox="0 0 10 8">
        <path d="M1 4L3.5 6.5L9 1" stroke-width="2"/>
    </symbol>
    <symbol id="info-circle" width="20" height="20" viewBox="0 0 20 20">
        <path fill-rule="evenodd" clip-rule="evenodd" d="M10 1.5C5.30558 1.5 1.5 5.30558 1.5 10C1.5 14.6944 5.30558 18.5 10 18.5C14.6944 18.5 18.5 14.6944 18.5 10C18.5 5.30558 14.6944 1.5 10 1.5ZM0 10C0 4.47715 4.47715 0 10 0C15.5228 0 20 4.47715 20 10C20 15.5228 15.5228 20 10 20C4.47715 20 0 15.5228 0 10ZM11 15V8.5H9V15H11ZM11.25 6.25C11.25 6.94036 10.6904 7.5 10 7.5C9.30964 7.5 8.75 6.94036 8.75 6.25C8.75 5.55964 9.30964 5 10 5C10.6904 5 11.25 5.55964 11.25 6.25Z"/>
    </symbol>
    <symbol id="fb" width="30" height="30" viewBox="0 0 30 30">
        <circle cx="15" cy="15" r="14.25" stroke-width="1.5"></circle>
        <path fill-rule="evenodd" clip-rule="evenodd" d="M15.99 21.109v-6.43h1.775L18 12.463h-2.01l.003-1.11c0-.577.055-.887.885-.887h1.11V8.25h-1.776c-2.132 0-2.883 1.075-2.883 2.883v1.33H12v2.216h1.33v6.43h2.66z" fill="currentColor"></path>
    </symbol>
    <symbol id="vk" width="30" height="30" viewBox="0 0 30 30">
        <circle cx="15" cy="15" r="14.25" stroke-width="1.5"></circle>
        <path fill-rule="evenodd" clip-rule="evenodd" d="M15.662 19.528s.244-.026.368-.158c.115-.12.11-.348.11-.348s-.014-1.062.488-1.219c.495-.154 1.131 1.027 1.806 1.482.51.343.897.268.897.268l1.803-.025s.943-.057.496-.784c-.037-.06-.261-.54-1.34-1.523-1.132-1.03-.98-.863.382-2.645.829-1.085 1.16-1.747 1.057-2.03-.099-.271-.709-.2-.709-.2l-2.03.013s-.15-.02-.262.045c-.109.064-.18.214-.18.214s-.32.84-.749 1.554c-.904 1.506-1.265 1.586-1.413 1.492-.344-.218-.258-.876-.258-1.343 0-1.46.226-2.07-.439-2.227-.22-.052-.383-.086-.947-.092-.725-.008-1.338.002-1.685.169-.23.11-.41.358-.3.373.134.017.438.08.599.295.208.278.2.902.2.902s.12 1.718-.279 1.932c-.273.146-.648-.153-1.454-1.52a12.6 12.6 0 01-.725-1.473s-.06-.145-.168-.223c-.13-.094-.311-.123-.311-.123l-1.929.012s-.29.008-.396.132c-.094.11-.007.337-.007.337s1.51 3.468 3.22 5.216c1.568 1.602 3.348 1.497 3.348 1.497h.807z" fill="currentColor" />
    </symbol>
    <symbol id="instagram" width="30" height="30" viewBox="0 0 30 30">
        <circle cx="15" cy="15" r="14.25" stroke-width="1.5"></circle>
        <path fill-rule="evenodd" clip-rule="evenodd" d="M12.217 8.29c.72-.032.95-.04 2.784-.04h-.002c1.833 0 2.062.008 2.783.04.718.034 1.209.147 1.64.314a3.3 3.3 0 011.195.779c.375.375.606.752.779 1.196.166.429.28.92.313 1.638.033.72.041.95.041 2.783s-.008 2.063-.04 2.783c-.035.718-.148 1.209-.314 1.638-.173.444-.404.82-.78 1.196a3.302 3.302 0 01-1.194.779c-.43.167-.92.28-1.64.313-.72.033-.949.041-2.782.041-1.833 0-2.063-.008-2.783-.04-.719-.034-1.21-.147-1.639-.314a3.305 3.305 0 01-1.195-.78 3.307 3.307 0 01-.779-1.195c-.166-.43-.28-.92-.313-1.638-.033-.72-.041-.95-.041-2.783s.008-2.063.04-2.783c.033-.719.147-1.21.314-1.639.173-.444.404-.82.78-1.195a3.305 3.305 0 011.195-.779c.43-.167.92-.28 1.638-.313zm2.558 1.177h-.381v-.002c-1.258.002-1.5.01-2.122.038-.658.03-1.015.14-1.253.233-.315.122-.54.269-.777.505a2.092 2.092 0 00-.505.776c-.092.238-.202.595-.232 1.254-.033.711-.04.924-.04 2.726 0 1.803.007 2.017.04 2.728.03.658.14 1.015.232 1.253.123.315.27.54.505.776.237.236.462.383.777.505.238.092.595.202 1.253.232.712.033.925.04 2.728.04 1.802 0 2.016-.007 2.727-.04.658-.03 1.016-.14 1.253-.232.316-.122.54-.269.776-.505s.383-.46.505-.775c.093-.238.203-.595.233-1.253.032-.712.04-.926.04-2.727 0-1.802-.008-2.015-.04-2.727-.03-.658-.14-1.015-.233-1.253a2.095 2.095 0 00-.505-.776 2.087 2.087 0 00-.776-.505c-.238-.092-.595-.202-1.253-.232-.712-.033-.925-.04-2.727-.04h-.225z" fill="currentColor"></path><path fill-rule="evenodd" clip-rule="evenodd" d="M18.604 10.587a.81.81 0 100 1.62.81.81 0 000-1.62zM11.534 15a3.467 3.467 0 116.933 0 3.467 3.467 0 01-6.933 0zm5.714 0a2.25 2.25 0 10-4.5 0 2.25 2.25 0 004.5 0z" fill="currentColor"></path>
    </symbol>
    <symbol id="kia-logo" width="70" height="35" viewBox="0 0 80 40">
        <path fill-rule="evenodd" clip-rule="evenodd" d="M52.339 10.05v.78h.434c.366 0 .631.25.631.585 0 .118-.03.225-.059.309l-6.066 18.21a.194.194 0 00.033.174.158.158 0 00.13.064h4.728c.14 0 .295-.123.35-.271l4.032-12.756c.034-.132.16-.348.417-.348s.38.216.413.34l4.07 12.75c.064.162.219.285.358.285h4.728c.06 0 .097-.017.127-.06.042-.055.05-.14.037-.17L60.13 10.194c-.033-.072-.096-.144-.362-.144h-7.428zM38.572 29.98a.2.2 0 01-.201-.204v-18.5c0-.355-.28-.639-.628-.639h-.477v-.78h6.089c.112 0 .2.093.2.208v19.711a.2.2 0 01-.2.203h-4.783z" />
        <path fill-rule="evenodd" clip-rule="evenodd" d="M.667 19.998C.667 8.955 18.279 0 40.002 0c21.723 0 39.331 8.955 39.331 19.998C79.333 31.045 61.725 40 40.003 40 18.278 40 .666 31.045.666 19.998zm39.33-17.906c-19.408 0-35.14 8.015-35.14 17.906 0 9.895 15.732 17.91 35.14 17.91 19.413 0 35.147-8.015 35.147-17.91 0-9.891-15.734-17.906-35.146-17.906z" />
        <path fill-rule="evenodd" clip-rule="evenodd" d="M27.675 29.98c-.151 0-.406-.14-.556-.373l-5.503-7.816c-.067-.101-.2-.292-.478-.292-.217 0-.439.152-.439.496v7.781a.2.2 0 01-.2.203h-4.65c-.108 0-.2-.089-.2-.203v-18.5c0-.355-.28-.639-.628-.639h-.523v-.78h6c.11 0 .201.093.201.208v6.569c0 .259.188.449.44.449.07 0 .301-.025.502-.33l4.553-6.518c.154-.234.414-.378.565-.378h5.243c.08 0 .125.073.138.093.025.047.041.124.004.187L26.298 18.9l-.008.013a.84.84 0 00-.113.373c0 .098.033.237.154.398.453.648 6.951 9.956 6.972 9.98.054.081.063.149.034.213-.034.063-.1.101-.139.101h-5.523z" />
    </symbol>
    <symbol id="kia-header-logo" viewBox="0 0 334 168">
        <path d="M157.744 167.349C146.671 167.057 134.46 166.082 123.651 164.628C77.6314 158.437 39.0687 142.656 17.6008 121.231C8.49719 112.146 2.72831 102.163 0.782883 92.1297C0.149319 88.8621 0 87.2611 0 83.7358C0 80.2105 0.149319 78.6095 0.782883 75.342C2.06171 68.7464 5.09891 61.9458 9.5805 55.6432C19.7157 41.3898 37.4998 28.7003 60.8343 19.072C99.7259 3.02459 150.65 -3.3321 200.238 1.67067C258.451 7.54345 306.338 28.7862 325.341 57.1653C334.028 70.1393 336.156 84.2308 331.508 98.003C328.824 105.956 323.609 113.904 316.268 121.231C295.927 141.531 260.13 156.839 217.163 163.612C197.947 166.64 178.136 167.886 157.744 167.349V167.349ZM183.131 156.637C206.432 155.195 226.107 151.77 245.281 145.819C260.494 141.097 274.674 134.561 285.562 127.251C291.048 123.568 294.854 120.459 299.158 116.145C304.27 111.022 307.568 106.527 310.254 101.025C313.258 94.8694 314.422 90.0438 314.422 83.7358C314.422 77.3911 313.182 72.3085 310.139 66.1738C307.508 60.869 304.151 56.3302 299.158 51.3263C291.826 43.9775 283.115 37.917 271.603 32.1541C250.052 21.366 223.088 14.3078 193.05 11.5919C176.412 10.0875 157.51 10.0868 140.819 11.5899C98.5876 15.3927 62.3357 27.9286 39.9055 46.4857C37.0603 48.8396 31.9886 53.9601 29.8627 56.625C22.2616 66.1537 18.6732 76.4351 19.4908 86.3423C20.3816 97.1359 25.2422 106.654 34.7109 116.145C41.8834 123.335 50.4113 129.311 61.5016 134.919C86.7561 147.689 117.788 155.007 154.286 156.801C158.408 157.003 179.114 156.886 183.131 156.637V156.637ZM64.7471 126.061C64.5469 125.977 64.2193 125.727 64.0191 125.505C63.6578 125.103 63.6548 124.811 63.6084 86.1368L63.5617 47.1732L63.0797 46.6702C62.6239 46.1944 62.4979 46.1643 60.7606 46.1155L58.9234 46.0639V43.6071V41.1502L72.1478 41.1035L85.3722 41.0568L85.9335 41.5292L86.4949 42.0015V56.049C86.4949 71.4829 86.4534 70.9054 87.5631 70.9054C88.2518 70.9054 88.4904 70.6183 92.3268 65.1728C102.49 50.747 108.08 42.9012 108.585 42.3564C109.827 41.0138 109.264 41.0676 122.128 41.0632L133.647 41.0592L134.086 41.4985C134.626 42.0383 134.829 42.7753 134.584 43.302C134.428 43.6361 129.444 51.0365 112.04 76.7773C110.139 79.5875 109.609 80.503 109.613 80.963C109.618 81.4402 110.854 83.2949 116.131 90.7424C139.451 123.654 139.526 123.762 139.598 124.427C139.652 124.927 139.562 125.204 139.213 125.61L138.758 126.139L126.728 126.189C114.866 126.237 114.685 126.233 113.812 125.857C113.325 125.647 112.723 125.257 112.475 124.989C112.227 124.721 106.743 117.09 100.289 108.031C93.8348 98.9728 88.4233 91.453 88.2635 91.3207C87.8146 90.9491 86.994 91.1264 86.7292 91.6523C86.5503 92.0078 86.4996 95.7161 86.4975 108.613L86.4945 125.118L86.0554 125.629L85.6163 126.139L75.3635 126.176C69.7245 126.195 64.947 126.144 64.7468 126.061L64.7471 126.061ZM156.101 125.979C155.799 125.846 155.451 125.516 155.328 125.247C155.154 124.865 155.105 116.207 155.105 85.9881V47.2189L154.573 46.687C154.059 46.1731 153.982 46.155 152.298 46.155H150.555V43.6072V41.0593H164.02H177.484L178.078 41.5903L178.673 42.1214V83.6258V125.13L178.168 125.635L177.664 126.139L167.158 126.18C158.743 126.213 156.542 126.172 156.101 125.979V125.979ZM195.234 126.011C194.668 125.686 194.427 125.281 194.42 124.647C194.417 124.326 197.001 116.341 200.161 106.903C203.322 97.4641 208.349 82.4529 211.332 73.5445C214.316 64.6361 217.462 55.266 218.325 52.722C219.187 50.178 219.893 47.8735 219.893 47.6009C219.893 47.3283 219.737 46.912 219.546 46.6757C219.235 46.2907 219.013 46.2366 217.408 46.155L215.616 46.064L215.566 43.5617L215.515 41.0593L231.672 41.0613C242.278 41.0613 248.062 41.1272 248.509 41.2513C248.883 41.3552 249.28 41.609 249.39 41.8154C249.618 42.2405 251.429 47.5967 259.969 73.0905C273.862 114.564 277.038 124.137 277.038 124.528C277.038 125.169 276.678 125.807 276.19 126.029C275.882 126.17 272.652 126.231 265.61 126.231C256.318 126.231 255.42 126.204 254.848 125.913C254.505 125.738 254.074 125.389 253.889 125.137C253.705 124.886 252.294 120.75 250.752 115.947C236.061 70.1617 236.468 71.4112 236.138 71.0431C235.773 70.6365 235.495 70.6404 235.118 71.0571C234.818 71.3886 234.252 73.1294 226.265 98.2959C223.946 105.603 221.446 113.465 220.71 115.767C219.973 118.069 219.029 121.038 218.612 122.364C217.791 124.972 217.428 125.593 216.502 125.98C215.702 126.315 195.813 126.344 195.234 126.012L195.234 126.011Z" fill="#C41230"/>
    </symbol>
    <symbol id="arrow-right" viewBox="0 0 24 24">
        <path d="M8.59009 16.59L13.1701 12L8.59009 7.41L10.0001 6L16.0001 12L10.0001 18L8.59009 16.59Z"/>
    </symbol>
    <symbol id="info" width="20" height="20" viewBox="0 0 20 20">
        <path d="M9 5H11V7H9V5ZM10 15C10.55 15 11 14.55 11 14V10C11 9.45 10.55 9 10 9C9.45 9 9 9.45 9 10V14C9 14.55 9.45 15 10 15ZM10 0C4.48 0 0 4.48 0 10C0 15.52 4.48 20 10 20C15.52 20 20 15.52 20 10C20 4.48 15.52 0 10 0ZM10 18C5.59 18 2 14.41 2 10C2 5.59 5.59 2 10 2C14.41 2 18 5.59 18 10C18 14.41 14.41 18 10 18Z"/>
    </symbol>
    <symbol id="dots" width="18" height="4" viewBox="0 0 18 4">
        <circle data-v-0c672bec="" cx="2" cy="2" r="2"></circle>
        <circle data-v-0c672bec="" cx="9" cy="2" r="2"></circle>
        <circle data-v-0c672bec="" cx="16" cy="2" r="2"></circle>
    </symbol>
    <symbol id="arrow-bottom" width="12" height="8" viewBox="0 0 12 8">
        <path d="M2.11997 1.29006L5.99997 5.17006L9.87997 1.29006C10.27 0.900059 10.9 0.900059 11.29 1.29006C11.68 1.68006 11.68 2.31006 11.29 2.70006L6.69997 7.29006C6.30997 7.68006 5.67997 7.68006 5.28997 7.29006L0.699971 2.70006C0.309971 2.31006 0.309971 1.68006 0.699971 1.29006C1.08997 0.910059 1.72997 0.900059 2.11997 1.29006Z"/>
    </symbol>
</svg>
