<svg version="1.1" xmlns="http://www.w3.org/2000/svg" xmlns:xlink="http://www.w3.org/1999/xlink">
    <symbol id="file" viewBox="0 0 20 20">
        <path d="M2.75.75h9.94l4.56 4.56v13.94H2.75V.75z" stroke-width="1.5"></path>
        <path d="M12.5 1v5h4" stroke-width="1.5"></path>
    </symbol>
    <symbol id="plus" viewBox="0 0 20 20">
        <path d="M10 5v10M5 10h10" stroke-width="2" />
    </symbol>
    <symbol id="check" viewBox="0 0 10 8">
        <path d="M1 4L3.5 6.5L9 1" stroke-width="2"/>
    </symbol>
    <symbol id="info-circle" width="20" height="20" viewBox="0 0 20 20">
        <path fill-rule="evenodd" clip-rule="evenodd" d="M10 1.5C5.30558 1.5 1.5 5.30558 1.5 10C1.5 14.6944 5.30558 18.5 10 18.5C14.6944 18.5 18.5 14.6944 18.5 10C18.5 5.30558 14.6944 1.5 10 1.5ZM0 10C0 4.47715 4.47715 0 10 0C15.5228 0 20 4.47715 20 10C20 15.5228 15.5228 20 10 20C4.47715 20 0 15.5228 0 10ZM11 15V8.5H9V15H11ZM11.25 6.25C11.25 6.94036 10.6904 7.5 10 7.5C9.30964 7.5 8.75 6.94036 8.75 6.25C8.75 5.55964 9.30964 5 10 5C10.6904 5 11.25 5.55964 11.25 6.25Z"/>
    </symbol>
    <symbol id="fb" viewBox="0 0 30 30" fill="none">
        <circle cx="15" cy="15" r="14.25" stroke="white" stroke-width="1.5"/>
        <path fill-rule="evenodd" clip-rule="evenodd" d="M15.9897 21.109V14.6788H17.7648L18 12.4628H15.9897L15.9928 11.3538C15.9928 10.7758 16.0477 10.4662 16.8778 10.4662H17.9874V8.25H16.2122C14.0798 8.25 13.3292 9.32495 13.3292 11.1327V12.4631H12V14.679H13.3292V21.109H15.9897Z" fill="white"/>
    </symbol>
    <symbol id="vk" viewBox="0 0 30 30" fill="none">
        <circle cx="15" cy="15" r="14.25" stroke="white" stroke-width="1.5"/>
        <path fill-rule="evenodd" clip-rule="evenodd" d="M15.6621 19.5284C15.6621 19.5284 15.9057 19.5018 16.0305 19.3703C16.1447 19.2497 16.1408 19.0222 16.1408 19.0222C16.1408 19.0222 16.1256 17.9599 16.6281 17.8031C17.1233 17.6488 17.7591 18.8304 18.4339 19.2847C18.9437 19.6282 19.3306 19.553 19.3306 19.553L21.1338 19.5284C21.1338 19.5284 22.0767 19.4714 21.6297 18.7435C21.5927 18.6839 21.3689 18.2049 20.2893 17.221C19.1583 16.1912 19.3101 16.3577 20.6716 14.576C21.501 13.491 21.8324 12.8286 21.7288 12.5454C21.6304 12.2745 21.0203 12.3464 21.0203 12.3464L18.9906 12.3587C18.9906 12.3587 18.84 12.3387 18.7284 12.4041C18.6195 12.4683 18.5488 12.618 18.5488 12.618C18.5488 12.618 18.2279 13.4573 17.7994 14.1716C16.8955 15.6778 16.5343 15.7576 16.3864 15.6642C16.0424 15.4458 16.1282 14.7879 16.1282 14.3206C16.1282 12.8604 16.354 12.2518 15.6891 12.0943C15.4686 12.0418 15.3062 12.0075 14.7416 12.0016C14.0173 11.9945 13.4045 12.0042 13.0572 12.1708C12.8261 12.2816 12.6479 12.5292 12.7568 12.5435C12.8908 12.561 13.1946 12.6238 13.3557 12.839C13.5637 13.1171 13.5564 13.7406 13.5564 13.7406C13.5564 13.7406 13.6759 15.4594 13.2771 15.6727C13.0038 15.8191 12.6287 15.5203 11.8225 14.1534C11.4098 13.4534 11.0982 12.6796 11.0982 12.6796C11.0982 12.6796 11.0381 12.535 10.9305 12.4573C10.8004 12.3633 10.6188 12.3341 10.6188 12.3341L8.69011 12.3464C8.69011 12.3464 8.40024 12.3542 8.29393 12.478C8.19951 12.5875 8.28667 12.815 8.28667 12.815C8.28667 12.815 9.79674 16.2832 11.5069 18.0312C13.0751 19.6334 14.8552 19.5284 14.8552 19.5284H15.6621Z" fill="white"/>
    </symbol>
    <symbol id="youtube" viewBox="0 0 30 30" fill="none">
        <circle cx="15" cy="15" r="14.25" stroke="white" stroke-width="1.5"/>
        <path fill-rule="evenodd" clip-rule="evenodd" d="M20.403 11.1434C20.7626 11.5155 20.88 12.3605 20.88 12.3605C20.88 12.3605 21 13.353 21 14.3452V15.2756C21 16.2681 20.88 17.2603 20.88 17.2603C20.88 17.2603 20.7626 18.1053 20.403 18.4774C19.9918 18.9176 19.5359 18.963 19.2783 18.9887C19.2499 18.9916 19.224 18.9942 19.2008 18.997C17.5215 19.1212 15 19.125 15 19.125C15 19.125 11.88 19.0959 10.92 19.0016C10.8745 18.9929 10.8194 18.9862 10.7569 18.9785C10.4528 18.9412 9.97557 18.8827 9.59662 18.4774C9.237 18.1053 9.12 17.2603 9.12 17.2603C9.12 17.2603 9 16.2681 9 15.2756V14.3452C9 13.353 9.12 12.3605 9.12 12.3605C9.12 12.3605 9.237 11.5155 9.59662 11.1434C10.0087 10.7026 10.465 10.6576 10.7227 10.6322C10.7507 10.6295 10.7763 10.6269 10.7992 10.6242C12.4785 10.5 14.9974 10.5 14.9974 10.5H15.0026C15.0026 10.5 17.5215 10.5 19.2008 10.6242C19.2237 10.6269 19.2493 10.6295 19.2773 10.6322C19.5348 10.6576 19.9913 10.7027 20.403 11.1434ZM13.7594 12.9577L13.7598 16.4032L17.0017 14.6864L13.7594 12.9577Z" fill="white"/>
    </symbol>
    <symbol id="instagram" viewBox="0 0 30 30" fill="none">
        <circle cx="15" cy="15" r="14.25" stroke="white" stroke-width="1.5"/>
        <path fill-rule="evenodd" clip-rule="evenodd" d="M12.2174 8.29078C12.9374 8.25802 13.1674 8.25 15.0006 8.25H14.9985C16.8323 8.25 17.0615 8.25802 17.7815 8.29078C18.5001 8.32369 18.9909 8.43746 19.4212 8.60438C19.8656 8.77665 20.2411 9.00727 20.6166 9.38275C20.992 9.75794 21.2227 10.1345 21.3956 10.5785C21.5616 11.0077 21.6755 11.4982 21.7092 12.2168C21.7416 12.9368 21.75 13.1669 21.75 15.0001C21.75 16.8333 21.7416 17.0628 21.7092 17.7828C21.6755 18.5011 21.5616 18.9918 21.3956 19.4211C21.2227 19.8649 20.992 20.2415 20.6166 20.6167C20.2415 20.9922 19.8655 21.2234 19.4216 21.3958C18.9922 21.5627 18.5011 21.6765 17.7825 21.7094C17.0625 21.7421 16.8331 21.7501 14.9998 21.7501C13.1667 21.7501 12.9368 21.7421 12.2168 21.7094C11.4983 21.6765 11.0077 21.5627 10.5782 21.3958C10.1345 21.2234 9.75794 20.9922 9.38289 20.6167C9.00755 20.2415 8.77693 19.8649 8.60438 19.4209C8.4376 18.9918 8.32383 18.5012 8.29078 17.7826C8.25816 17.0626 8.25 16.8333 8.25 15.0001C8.25 13.1669 8.25844 12.9367 8.29064 12.2167C8.32299 11.4983 8.43689 11.0077 8.60424 10.5784C8.77721 10.1345 9.00784 9.75794 9.38331 9.38275C9.7585 9.00741 10.1351 8.77679 10.5791 8.60438C11.0082 8.43746 11.4988 8.32369 12.2174 8.29078ZM14.7746 9.46679C14.6381 9.46672 14.5116 9.46667 14.394 9.46685V9.46516C13.136 9.46657 12.8947 9.47501 12.272 9.50313C11.6139 9.53337 11.2565 9.64306 11.0186 9.73587C10.7036 9.8585 10.4786 10.0047 10.2423 10.241C10.0061 10.4773 9.85953 10.7023 9.73719 11.0173C9.6448 11.2552 9.53483 11.6124 9.50473 12.2705C9.47239 12.9821 9.46592 13.1947 9.46592 14.9973C9.46592 16.7998 9.47239 17.0136 9.50473 17.7251C9.53469 18.3833 9.6448 18.7405 9.73719 18.9781C9.85982 19.2933 10.0061 19.5177 10.2423 19.754C10.4786 19.9902 10.7036 20.1365 11.0186 20.2588C11.2567 20.3512 11.6139 20.4612 12.272 20.4915C12.9836 20.5239 13.1972 20.5309 14.9996 20.5309C16.8018 20.5309 17.0156 20.5239 17.7272 20.4915C18.3853 20.4615 18.7428 20.3518 18.9804 20.2589C19.2956 20.1366 19.5199 19.9904 19.7561 19.7541C19.9924 19.518 20.1389 19.2937 20.2613 18.9787C20.3536 18.741 20.4636 18.3838 20.4937 17.7257C20.5261 17.0141 20.5331 16.8004 20.5331 14.999C20.5331 13.1975 20.5261 12.9838 20.4937 12.2722C20.4638 11.6141 20.3536 11.2569 20.2613 11.0192C20.1386 10.7042 19.9924 10.4792 19.7561 10.243C19.52 10.0067 19.2954 9.86046 18.9804 9.73812C18.7425 9.64573 18.3853 9.53576 17.7272 9.50566C17.0155 9.47332 16.8018 9.46685 14.9996 9.46685C14.9217 9.46685 14.8467 9.46682 14.7746 9.46679Z" fill="white"/>
        <path fill-rule="evenodd" clip-rule="evenodd" d="M18.6044 10.5872C18.1572 10.5872 17.7944 10.9496 17.7944 11.3969C17.7944 11.8441 18.1572 12.2069 18.6044 12.2069C19.0516 12.2069 19.4144 11.8441 19.4144 11.3969C19.4144 10.9497 19.0516 10.5869 18.6044 10.5869V10.5872Z" fill="white"/>
        <path fill-rule="evenodd" clip-rule="evenodd" d="M11.5337 14.9996C11.5337 13.0853 13.0857 11.5333 15 11.5332C16.9143 11.5332 18.466 13.0853 18.466 14.9996C18.466 16.914 16.9145 18.4654 15.0001 18.4654C13.0858 18.4654 11.5337 16.914 11.5337 14.9996ZM17.2477 15C17.2477 13.7573 16.2403 12.7499 14.9977 12.7499C13.755 12.7499 12.7477 13.7573 12.7477 15C12.7477 16.2425 13.755 17.25 14.9977 17.25C16.2403 17.25 17.2477 16.2425 17.2477 15Z" fill="white"/>
    </symbol>
    <symbol id="kia-logo" width="70" height="35" viewBox="0 0 70 35" fill="none">
        <path d="M40.6147 24.1909C40.6147 24.3201 40.651 24.3906 40.7356 24.3906C40.7961 24.3906 40.8444 24.3671 40.9049 24.3319L62.7111 10.5521C63.0979 10.3054 63.4485 10.1762 63.9682 10.1762H68.7671C69.5044 10.1762 70 10.6579 70 11.3744V20.2673C70 21.3363 69.7582 21.9589 68.7671 22.5345L62.9529 25.9295C62.8803 25.9765 62.8078 26 62.7594 26C62.6869 26 62.6265 25.953 62.6265 25.7533V15.3686C62.6265 15.2511 62.5902 15.1689 62.5056 15.1689C62.4452 15.1689 62.3968 15.1924 62.3364 15.2276L46.3927 25.2952C45.9454 25.5771 45.5828 25.6593 45.1718 25.6593H34.5951C33.8577 25.6593 33.3621 25.1777 33.3621 24.4611V11.6564C33.3621 11.5624 33.3138 11.4802 33.2412 11.4802C33.1808 11.4802 33.1324 11.5037 33.072 11.5389L22.5557 17.6828C22.4469 17.7416 22.4227 17.8003 22.4227 17.8473C22.4227 17.8943 22.4348 17.9295 22.5194 18L30.0259 25.2952C30.1226 25.3891 30.1951 25.4714 30.1951 25.5419C30.1951 25.6241 30.0863 25.6711 29.9534 25.6711H23.1601C22.6282 25.6711 22.2172 25.5888 21.9271 25.3069L17.3701 20.8781C17.3217 20.8311 17.2854 20.8076 17.2371 20.8076C17.2008 20.8076 17.1404 20.8311 17.092 20.8546L9.47677 25.3069C9.01744 25.5771 8.70316 25.6593 8.24383 25.6593H1.23295C0.495597 25.6593 0 25.1777 0 24.4611V15.7327C0 14.652 0.241755 14.0411 1.23295 13.4655L7.0834 10.047C7.14384 10.0117 7.19219 10 7.24055 10C7.32516 10 7.37351 10.094 7.37351 10.2819V21.9589C7.37351 22.0764 7.40977 22.1351 7.49439 22.1351C7.54274 22.1351 7.60318 22.0999 7.66362 22.0646L27.427 10.5169C27.8985 10.2467 28.1886 10.1645 28.7325 10.1645H39.3697C40.1071 10.1645 40.6027 10.6461 40.6027 11.3627L40.6147 24.1909Z" fill="white"/>
    </symbol>
    <symbol id="arrow-right" viewBox="0 0 24 24">
        <path d="M8.59009 16.59L13.1701 12L8.59009 7.41L10.0001 6L16.0001 12L10.0001 18L8.59009 16.59Z"/>
    </symbol>
    <symbol id="info" width="20" height="20" viewBox="0 0 20 20">
        <path d="M9 5H11V7H9V5ZM10 15C10.55 15 11 14.55 11 14V10C11 9.45 10.55 9 10 9C9.45 9 9 9.45 9 10V14C9 14.55 9.45 15 10 15ZM10 0C4.48 0 0 4.48 0 10C0 15.52 4.48 20 10 20C15.52 20 20 15.52 20 10C20 4.48 15.52 0 10 0ZM10 18C5.59 18 2 14.41 2 10C2 5.59 5.59 2 10 2C14.41 2 18 5.59 18 10C18 14.41 14.41 18 10 18Z"/>
    </symbol>
    <symbol id="dots" width="18" height="4" viewBox="0 0 18 4">
        <circle data-v-0c672bec="" cx="2" cy="2" r="2"></circle>
        <circle data-v-0c672bec="" cx="9" cy="2" r="2"></circle>
        <circle data-v-0c672bec="" cx="16" cy="2" r="2"></circle>
    </symbol>
    <symbol id="arrow-bottom" width="12" height="8" viewBox="0 0 12 8">
        <path d="M2.11997 1.29006L5.99997 5.17006L9.87997 1.29006C10.27 0.900059 10.9 0.900059 11.29 1.29006C11.68 1.68006 11.68 2.31006 11.29 2.70006L6.69997 7.29006C6.30997 7.68006 5.67997 7.68006 5.28997 7.29006L0.699971 2.70006C0.309971 2.31006 0.309971 1.68006 0.699971 1.29006C1.08997 0.910059 1.72997 0.900059 2.11997 1.29006Z"/>
    </symbol>
    <symbol id="kia-header-logo" viewBox="0 0 70 35">
        <path d="M40.6147 24.1909C40.6147 24.3201 40.651 24.3906 40.7356 24.3906C40.7961 24.3906 40.8444 24.3671 40.9049 24.3319L62.7111 10.5521C63.0979 10.3054 63.4485 10.1762 63.9682 10.1762H68.7671C69.5044 10.1762 70 10.6579 70 11.3744V20.2673C70 21.3363 69.7582 21.9589 68.7671 22.5345L62.9529 25.9295C62.8803 25.9765 62.8078 26 62.7594 26C62.6869 26 62.6265 25.953 62.6265 25.7533V15.3686C62.6265 15.2511 62.5902 15.1689 62.5056 15.1689C62.4452 15.1689 62.3968 15.1924 62.3364 15.2276L46.3927 25.2952C45.9454 25.5771 45.5828 25.6593 45.1718 25.6593H34.5951C33.8577 25.6593 33.3621 25.1777 33.3621 24.4611V11.6564C33.3621 11.5624 33.3138 11.4802 33.2412 11.4802C33.1808 11.4802 33.1324 11.5037 33.072 11.5389L22.5557 17.6828C22.4469 17.7416 22.4227 17.8003 22.4227 17.8473C22.4227 17.8943 22.4348 17.9295 22.5194 18L30.0259 25.2952C30.1226 25.3891 30.1951 25.4714 30.1951 25.5419C30.1951 25.6241 30.0863 25.6711 29.9534 25.6711H23.1601C22.6282 25.6711 22.2172 25.5888 21.9271 25.3069L17.3701 20.8781C17.3217 20.8311 17.2854 20.8076 17.2371 20.8076C17.2008 20.8076 17.1404 20.8311 17.092 20.8546L9.47677 25.3069C9.01744 25.5771 8.70316 25.6593 8.24383 25.6593H1.23295C0.495597 25.6593 0 25.1777 0 24.4611V15.7327C0 14.652 0.241755 14.0411 1.23295 13.4655L7.0834 10.047C7.14384 10.0117 7.19219 10 7.24055 10C7.32516 10 7.37351 10.094 7.37351 10.2819V21.9589C7.37351 22.0764 7.40977 22.1351 7.49439 22.1351C7.54274 22.1351 7.60318 22.0999 7.66362 22.0646L27.427 10.5169C27.8985 10.2467 28.1886 10.1645 28.7325 10.1645H39.3697C40.1071 10.1645 40.6027 10.6461 40.6027 11.3627L40.6147 24.1909Z" fill="#05141F"/>
    </symbol>
</svg>
