<svg version="1.1"
    xmlns="http://www.w3.org/2000/svg"
    xmlns:xlink="http://www.w3.org/1999/xlink">
    <symbol id="file" viewBox="0 0 20 20">
        <path d="M2.75.75h9.94l4.56 4.56v13.94H2.75V.75z" stroke-width="1.5"></path>
        <path d="M12.5 1v5h4" stroke-width="1.5"></path>
    </symbol>
    <symbol id="plus" viewBox="0 0 20 20">
        <path d="M10 5v10M5 10h10" stroke-width="2" />
    </symbol>
    <symbol id="check" viewBox="0 0 10 8">
        <path d="M1 4L3.5 6.5L9 1" stroke-width="2"/>
    </symbol>
    <symbol id="info-circle" width="20" height="20" viewBox="0 0 20 20">
        <path fill-rule="evenodd" clip-rule="evenodd" d="M10 1.5C5.30558 1.5 1.5 5.30558 1.5 10C1.5 14.6944 5.30558 18.5 10 18.5C14.6944 18.5 18.5 14.6944 18.5 10C18.5 5.30558 14.6944 1.5 10 1.5ZM0 10C0 4.47715 4.47715 0 10 0C15.5228 0 20 4.47715 20 10C20 15.5228 15.5228 20 10 20C4.47715 20 0 15.5228 0 10ZM11 15V8.5H9V15H11ZM11.25 6.25C11.25 6.94036 10.6904 7.5 10 7.5C9.30964 7.5 8.75 6.94036 8.75 6.25C8.75 5.55964 9.30964 5 10 5C10.6904 5 11.25 5.55964 11.25 6.25Z"/>
    </symbol>
    <symbol id="vk" viewBox="0 0 30 30" fill="none">
        <circle cx="15" cy="15" r="14.25" stroke="white" stroke-width="1.5"/>
        <path fill-rule="evenodd" clip-rule="evenodd" d="M15.6621 19.5284C15.6621 19.5284 15.9057 19.5018 16.0305 19.3703C16.1447 19.2497 16.1408 19.0222 16.1408 19.0222C16.1408 19.0222 16.1256 17.9599 16.6281 17.8031C17.1233 17.6488 17.7591 18.8304 18.4339 19.2847C18.9437 19.6282 19.3306 19.553 19.3306 19.553L21.1338 19.5284C21.1338 19.5284 22.0767 19.4714 21.6297 18.7435C21.5927 18.6839 21.3689 18.2049 20.2893 17.221C19.1583 16.1912 19.3101 16.3577 20.6716 14.576C21.501 13.491 21.8324 12.8286 21.7288 12.5454C21.6304 12.2745 21.0203 12.3464 21.0203 12.3464L18.9906 12.3587C18.9906 12.3587 18.84 12.3387 18.7284 12.4041C18.6195 12.4683 18.5488 12.618 18.5488 12.618C18.5488 12.618 18.2279 13.4573 17.7994 14.1716C16.8955 15.6778 16.5343 15.7576 16.3864 15.6642C16.0424 15.4458 16.1282 14.7879 16.1282 14.3206C16.1282 12.8604 16.354 12.2518 15.6891 12.0943C15.4686 12.0418 15.3062 12.0075 14.7416 12.0016C14.0173 11.9945 13.4045 12.0042 13.0572 12.1708C12.8261 12.2816 12.6479 12.5292 12.7568 12.5435C12.8908 12.561 13.1946 12.6238 13.3557 12.839C13.5637 13.1171 13.5564 13.7406 13.5564 13.7406C13.5564 13.7406 13.6759 15.4594 13.2771 15.6727C13.0038 15.8191 12.6287 15.5203 11.8225 14.1534C11.4098 13.4534 11.0982 12.6796 11.0982 12.6796C11.0982 12.6796 11.0381 12.535 10.9305 12.4573C10.8004 12.3633 10.6188 12.3341 10.6188 12.3341L8.69011 12.3464C8.69011 12.3464 8.40024 12.3542 8.29393 12.478C8.19951 12.5875 8.28667 12.815 8.28667 12.815C8.28667 12.815 9.79674 16.2832 11.5069 18.0312C13.0751 19.6334 14.8552 19.5284 14.8552 19.5284H15.6621Z" fill="white"/>
    </symbol>
    <symbol id="kia-logo" width="70" height="35" viewBox="0 0 80 40">
        <path fill-rule="evenodd" clip-rule="evenodd" d="M52.339 10.05v.78h.434c.366 0 .631.25.631.585 0 .118-.03.225-.059.309l-6.066 18.21a.194.194 0 00.033.174.158.158 0 00.13.064h4.728c.14 0 .295-.123.35-.271l4.032-12.756c.034-.132.16-.348.417-.348s.38.216.413.34l4.07 12.75c.064.162.219.285.358.285h4.728c.06 0 .097-.017.127-.06.042-.055.05-.14.037-.17L60.13 10.194c-.033-.072-.096-.144-.362-.144h-7.428zM38.572 29.98a.2.2 0 01-.201-.204v-18.5c0-.355-.28-.639-.628-.639h-.477v-.78h6.089c.112 0 .2.093.2.208v19.711a.2.2 0 01-.2.203h-4.783z" />
        <path fill-rule="evenodd" clip-rule="evenodd" d="M.667 19.998C.667 8.955 18.279 0 40.002 0c21.723 0 39.331 8.955 39.331 19.998C79.333 31.045 61.725 40 40.003 40 18.278 40 .666 31.045.666 19.998zm39.33-17.906c-19.408 0-35.14 8.015-35.14 17.906 0 9.895 15.732 17.91 35.14 17.91 19.413 0 35.147-8.015 35.147-17.91 0-9.891-15.734-17.906-35.146-17.906z" />
        <path fill-rule="evenodd" clip-rule="evenodd" d="M27.675 29.98c-.151 0-.406-.14-.556-.373l-5.503-7.816c-.067-.101-.2-.292-.478-.292-.217 0-.439.152-.439.496v7.781a.2.2 0 01-.2.203h-4.65c-.108 0-.2-.089-.2-.203v-18.5c0-.355-.28-.639-.628-.639h-.523v-.78h6c.11 0 .201.093.201.208v6.569c0 .259.188.449.44.449.07 0 .301-.025.502-.33l4.553-6.518c.154-.234.414-.378.565-.378h5.243c.08 0 .125.073.138.093.025.047.041.124.004.187L26.298 18.9l-.008.013a.84.84 0 00-.113.373c0 .098.033.237.154.398.453.648 6.951 9.956 6.972 9.98.054.081.063.149.034.213-.034.063-.1.101-.139.101h-5.523z" />
    </symbol>
    <symbol id="kia-header-logo" viewBox="0 0 334 168">
        <path d="M157.744 167.349C146.671 167.057 134.46 166.082 123.651 164.628C77.6314 158.437 39.0687 142.656 17.6008 121.231C8.49719 112.146 2.72831 102.163 0.782883 92.1297C0.149319 88.8621 0 87.2611 0 83.7358C0 80.2105 0.149319 78.6095 0.782883 75.342C2.06171 68.7464 5.09891 61.9458 9.5805 55.6432C19.7157 41.3898 37.4998 28.7003 60.8343 19.072C99.7259 3.02459 150.65 -3.3321 200.238 1.67067C258.451 7.54345 306.338 28.7862 325.341 57.1653C334.028 70.1393 336.156 84.2308 331.508 98.003C328.824 105.956 323.609 113.904 316.268 121.231C295.927 141.531 260.13 156.839 217.163 163.612C197.947 166.64 178.136 167.886 157.744 167.349V167.349ZM183.131 156.637C206.432 155.195 226.107 151.77 245.281 145.819C260.494 141.097 274.674 134.561 285.562 127.251C291.048 123.568 294.854 120.459 299.158 116.145C304.27 111.022 307.568 106.527 310.254 101.025C313.258 94.8694 314.422 90.0438 314.422 83.7358C314.422 77.3911 313.182 72.3085 310.139 66.1738C307.508 60.869 304.151 56.3302 299.158 51.3263C291.826 43.9775 283.115 37.917 271.603 32.1541C250.052 21.366 223.088 14.3078 193.05 11.5919C176.412 10.0875 157.51 10.0868 140.819 11.5899C98.5876 15.3927 62.3357 27.9286 39.9055 46.4857C37.0603 48.8396 31.9886 53.9601 29.8627 56.625C22.2616 66.1537 18.6732 76.4351 19.4908 86.3423C20.3816 97.1359 25.2422 106.654 34.7109 116.145C41.8834 123.335 50.4113 129.311 61.5016 134.919C86.7561 147.689 117.788 155.007 154.286 156.801C158.408 157.003 179.114 156.886 183.131 156.637V156.637ZM64.7471 126.061C64.5469 125.977 64.2193 125.727 64.0191 125.505C63.6578 125.103 63.6548 124.811 63.6084 86.1368L63.5617 47.1732L63.0797 46.6702C62.6239 46.1944 62.4979 46.1643 60.7606 46.1155L58.9234 46.0639V43.6071V41.1502L72.1478 41.1035L85.3722 41.0568L85.9335 41.5292L86.4949 42.0015V56.049C86.4949 71.4829 86.4534 70.9054 87.5631 70.9054C88.2518 70.9054 88.4904 70.6183 92.3268 65.1728C102.49 50.747 108.08 42.9012 108.585 42.3564C109.827 41.0138 109.264 41.0676 122.128 41.0632L133.647 41.0592L134.086 41.4985C134.626 42.0383 134.829 42.7753 134.584 43.302C134.428 43.6361 129.444 51.0365 112.04 76.7773C110.139 79.5875 109.609 80.503 109.613 80.963C109.618 81.4402 110.854 83.2949 116.131 90.7424C139.451 123.654 139.526 123.762 139.598 124.427C139.652 124.927 139.562 125.204 139.213 125.61L138.758 126.139L126.728 126.189C114.866 126.237 114.685 126.233 113.812 125.857C113.325 125.647 112.723 125.257 112.475 124.989C112.227 124.721 106.743 117.09 100.289 108.031C93.8348 98.9728 88.4233 91.453 88.2635 91.3207C87.8146 90.9491 86.994 91.1264 86.7292 91.6523C86.5503 92.0078 86.4996 95.7161 86.4975 108.613L86.4945 125.118L86.0554 125.629L85.6163 126.139L75.3635 126.176C69.7245 126.195 64.947 126.144 64.7468 126.061L64.7471 126.061ZM156.101 125.979C155.799 125.846 155.451 125.516 155.328 125.247C155.154 124.865 155.105 116.207 155.105 85.9881V47.2189L154.573 46.687C154.059 46.1731 153.982 46.155 152.298 46.155H150.555V43.6072V41.0593H164.02H177.484L178.078 41.5903L178.673 42.1214V83.6258V125.13L178.168 125.635L177.664 126.139L167.158 126.18C158.743 126.213 156.542 126.172 156.101 125.979V125.979ZM195.234 126.011C194.668 125.686 194.427 125.281 194.42 124.647C194.417 124.326 197.001 116.341 200.161 106.903C203.322 97.4641 208.349 82.4529 211.332 73.5445C214.316 64.6361 217.462 55.266 218.325 52.722C219.187 50.178 219.893 47.8735 219.893 47.6009C219.893 47.3283 219.737 46.912 219.546 46.6757C219.235 46.2907 219.013 46.2366 217.408 46.155L215.616 46.064L215.566 43.5617L215.515 41.0593L231.672 41.0613C242.278 41.0613 248.062 41.1272 248.509 41.2513C248.883 41.3552 249.28 41.609 249.39 41.8154C249.618 42.2405 251.429 47.5967 259.969 73.0905C273.862 114.564 277.038 124.137 277.038 124.528C277.038 125.169 276.678 125.807 276.19 126.029C275.882 126.17 272.652 126.231 265.61 126.231C256.318 126.231 255.42 126.204 254.848 125.913C254.505 125.738 254.074 125.389 253.889 125.137C253.705 124.886 252.294 120.75 250.752 115.947C236.061 70.1617 236.468 71.4112 236.138 71.0431C235.773 70.6365 235.495 70.6404 235.118 71.0571C234.818 71.3886 234.252 73.1294 226.265 98.2959C223.946 105.603 221.446 113.465 220.71 115.767C219.973 118.069 219.029 121.038 218.612 122.364C217.791 124.972 217.428 125.593 216.502 125.98C215.702 126.315 195.813 126.344 195.234 126.012L195.234 126.011Z" fill="#C41230"/>
    </symbol>
    <symbol id="arrow-right" viewBox="0 0 24 24">
        <path d="M8.59009 16.59L13.1701 12L8.59009 7.41L10.0001 6L16.0001 12L10.0001 18L8.59009 16.59Z"/>
    </symbol>
    <symbol id="info" width="20" height="20" viewBox="0 0 20 20">
        <path d="M9 5H11V7H9V5ZM10 15C10.55 15 11 14.55 11 14V10C11 9.45 10.55 9 10 9C9.45 9 9 9.45 9 10V14C9 14.55 9.45 15 10 15ZM10 0C4.48 0 0 4.48 0 10C0 15.52 4.48 20 10 20C15.52 20 20 15.52 20 10C20 4.48 15.52 0 10 0ZM10 18C5.59 18 2 14.41 2 10C2 5.59 5.59 2 10 2C14.41 2 18 5.59 18 10C18 14.41 14.41 18 10 18Z"/>
    </symbol>
    <symbol id="dots" width="18" height="4" viewBox="0 0 18 4">
        <circle data-v-0c672bec="" cx="2" cy="2" r="2"></circle>
        <circle data-v-0c672bec="" cx="9" cy="2" r="2"></circle>
        <circle data-v-0c672bec="" cx="16" cy="2" r="2"></circle>
    </symbol>
    <symbol id="arrow-bottom" width="12" height="8" viewBox="0 0 12 8">
        <path d="M2.11997 1.29006L5.99997 5.17006L9.87997 1.29006C10.27 0.900059 10.9 0.900059 11.29 1.29006C11.68 1.68006 11.68 2.31006 11.29 2.70006L6.69997 7.29006C6.30997 7.68006 5.67997 7.68006 5.28997 7.29006L0.699971 2.70006C0.309971 2.31006 0.309971 1.68006 0.699971 1.29006C1.08997 0.910059 1.72997 0.900059 2.11997 1.29006Z"/>
    </symbol>
    <symbol id="kia-logo-new" viewBox="0 0 70 35">
        <path d="M40.61 24.2c0 .12.04.2.13.2.06 0 .1-.03.16-.07l21.81-13.78c.39-.24.74-.37 1.26-.37h4.8c.73 0 1.23.48 1.23 1.2v8.89c0 1.07-.24 1.69-1.23 2.26l-5.82 3.4a.4.4 0 01-.2.07c-.06 0-.12-.05-.12-.25V15.37c0-.12-.04-.2-.12-.2-.06 0-.11.02-.17.06L46.39 25.3c-.44.28-.8.36-1.22.36H34.6c-.74 0-1.24-.48-1.24-1.2v-12.8c0-.1-.05-.18-.12-.18-.06 0-.1.02-.17.06l-10.51 6.14c-.11.06-.14.12-.14.17 0 .04.01.08.1.15l7.5 7.3c.1.09.18.17.18.24 0 .08-.11.13-.25.13h-6.79c-.53 0-.94-.08-1.23-.36l-4.56-4.43c-.05-.05-.08-.07-.13-.07-.04 0-.1.02-.15.04l-7.61 4.46c-.46.27-.78.35-1.24.35h-7c-.74 0-1.24-.48-1.24-1.2v-8.73c0-1.08.24-1.69 1.23-2.26l5.85-3.42a.3.3 0 01.16-.05c.09 0 .13.1.13.28v11.68c0 .12.04.18.12.18.05 0 .11-.04.17-.08l19.77-11.54c.47-.27.76-.36 1.3-.36h10.64c.74 0 1.23.49 1.23 1.2l.01 12.83z"></path>
    </symbol>
    <symbol id="youtube" viewBox="0 0 30 30" fill="none">
        <circle cx="15" cy="15" r="14.25" stroke="white" stroke-width="1.5"/>
        <path fill-rule="evenodd" clip-rule="evenodd" d="M20.403 11.1434C20.7626 11.5155 20.88 12.3605 20.88 12.3605C20.88 12.3605 21 13.353 21 14.3452V15.2756C21 16.2681 20.88 17.2603 20.88 17.2603C20.88 17.2603 20.7626 18.1053 20.403 18.4774C19.9918 18.9176 19.5359 18.963 19.2783 18.9887C19.2499 18.9916 19.224 18.9942 19.2008 18.997C17.5215 19.1212 15 19.125 15 19.125C15 19.125 11.88 19.0959 10.92 19.0016C10.8745 18.9929 10.8194 18.9862 10.7569 18.9785C10.4528 18.9412 9.97557 18.8827 9.59662 18.4774C9.237 18.1053 9.12 17.2603 9.12 17.2603C9.12 17.2603 9 16.2681 9 15.2756V14.3452C9 13.353 9.12 12.3605 9.12 12.3605C9.12 12.3605 9.237 11.5155 9.59662 11.1434C10.0087 10.7026 10.465 10.6576 10.7227 10.6322C10.7507 10.6295 10.7763 10.6269 10.7992 10.6242C12.4785 10.5 14.9974 10.5 14.9974 10.5H15.0026C15.0026 10.5 17.5215 10.5 19.2008 10.6242C19.2237 10.6269 19.2493 10.6295 19.2773 10.6322C19.5348 10.6576 19.9913 10.7027 20.403 11.1434ZM13.7594 12.9577L13.7598 16.4032L17.0017 14.6864L13.7594 12.9577Z" fill="white"/>
    </symbol>
    <symbol id="instagram" viewBox="0 0 30 30" fill="none">
        <circle cx="15" cy="15" r="14.25" stroke="white" stroke-width="1.5"/>
        <path fill-rule="evenodd" clip-rule="evenodd" d="M12.2174 8.29078C12.9374 8.25802 13.1674 8.25 15.0006 8.25H14.9985C16.8323 8.25 17.0615 8.25802 17.7815 8.29078C18.5001 8.32369 18.9909 8.43746 19.4212 8.60438C19.8656 8.77665 20.2411 9.00727 20.6166 9.38275C20.992 9.75794 21.2227 10.1345 21.3956 10.5785C21.5616 11.0077 21.6755 11.4982 21.7092 12.2168C21.7416 12.9368 21.75 13.1669 21.75 15.0001C21.75 16.8333 21.7416 17.0628 21.7092 17.7828C21.6755 18.5011 21.5616 18.9918 21.3956 19.4211C21.2227 19.8649 20.992 20.2415 20.6166 20.6167C20.2415 20.9922 19.8655 21.2234 19.4216 21.3958C18.9922 21.5627 18.5011 21.6765 17.7825 21.7094C17.0625 21.7421 16.8331 21.7501 14.9998 21.7501C13.1667 21.7501 12.9368 21.7421 12.2168 21.7094C11.4983 21.6765 11.0077 21.5627 10.5782 21.3958C10.1345 21.2234 9.75794 20.9922 9.38289 20.6167C9.00755 20.2415 8.77693 19.8649 8.60438 19.4209C8.4376 18.9918 8.32383 18.5012 8.29078 17.7826C8.25816 17.0626 8.25 16.8333 8.25 15.0001C8.25 13.1669 8.25844 12.9367 8.29064 12.2167C8.32299 11.4983 8.43689 11.0077 8.60424 10.5784C8.77721 10.1345 9.00784 9.75794 9.38331 9.38275C9.7585 9.00741 10.1351 8.77679 10.5791 8.60438C11.0082 8.43746 11.4988 8.32369 12.2174 8.29078ZM14.7746 9.46679C14.6381 9.46672 14.5116 9.46667 14.394 9.46685V9.46516C13.136 9.46657 12.8947 9.47501 12.272 9.50313C11.6139 9.53337 11.2565 9.64306 11.0186 9.73587C10.7036 9.8585 10.4786 10.0047 10.2423 10.241C10.0061 10.4773 9.85953 10.7023 9.73719 11.0173C9.6448 11.2552 9.53483 11.6124 9.50473 12.2705C9.47239 12.9821 9.46592 13.1947 9.46592 14.9973C9.46592 16.7998 9.47239 17.0136 9.50473 17.7251C9.53469 18.3833 9.6448 18.7405 9.73719 18.9781C9.85982 19.2933 10.0061 19.5177 10.2423 19.754C10.4786 19.9902 10.7036 20.1365 11.0186 20.2588C11.2567 20.3512 11.6139 20.4612 12.272 20.4915C12.9836 20.5239 13.1972 20.5309 14.9996 20.5309C16.8018 20.5309 17.0156 20.5239 17.7272 20.4915C18.3853 20.4615 18.7428 20.3518 18.9804 20.2589C19.2956 20.1366 19.5199 19.9904 19.7561 19.7541C19.9924 19.518 20.1389 19.2937 20.2613 18.9787C20.3536 18.741 20.4636 18.3838 20.4937 17.7257C20.5261 17.0141 20.5331 16.8004 20.5331 14.999C20.5331 13.1975 20.5261 12.9838 20.4937 12.2722C20.4638 11.6141 20.3536 11.2569 20.2613 11.0192C20.1386 10.7042 19.9924 10.4792 19.7561 10.243C19.52 10.0067 19.2954 9.86046 18.9804 9.73812C18.7425 9.64573 18.3853 9.53576 17.7272 9.50566C17.0155 9.47332 16.8018 9.46685 14.9996 9.46685C14.9217 9.46685 14.8467 9.46682 14.7746 9.46679Z" fill="white"/>
        <path fill-rule="evenodd" clip-rule="evenodd" d="M18.6044 10.5872C18.1572 10.5872 17.7944 10.9496 17.7944 11.3969C17.7944 11.8441 18.1572 12.2069 18.6044 12.2069C19.0516 12.2069 19.4144 11.8441 19.4144 11.3969C19.4144 10.9497 19.0516 10.5869 18.6044 10.5869V10.5872Z" fill="white"/>
        <path fill-rule="evenodd" clip-rule="evenodd" d="M11.5339 14.9997C11.5339 13.0854 13.086 11.5333 15.0002 11.5333C16.9146 11.5333 18.4663 13.0854 18.4663 14.9997C18.4663 16.9141 16.9147 18.4654 15.0004 18.4654C13.086 18.4654 11.5339 16.9141 11.5339 14.9997ZM17.248 15C17.248 13.7573 16.2405 12.75 14.998 12.75C13.7552 12.75 12.7479 13.7573 12.7479 15C12.7479 16.2426 13.7552 17.2501 14.998 17.2501C16.2405 17.2501 17.248 16.2426 17.248 15Z" fill="white"/>
    </symbol>
    <symbol id="fb" viewBox="0 0 30 30" fill="none">
        <circle cx="15" cy="15" r="14.25" stroke="white" stroke-width="1.5"/>
        <path fill-rule="evenodd" clip-rule="evenodd" d="M15.9897 21.109V14.6788H17.7648L18 12.4628H15.9897L15.9928 11.3538C15.9928 10.7758 16.0477 10.4662 16.8778 10.4662H17.9874V8.25H16.2122C14.0798 8.25 13.3292 9.32495 13.3292 11.1327V12.4631H12V14.679H13.3292V21.109H15.9897Z" fill="white"/>
    </symbol>
    <symbol id="twitter" viewBox="0 0 24 24">
        <path fill-rule="evenodd" clip-rule="evenodd" d="M8 3C9.10457 3 10 3.89543 10 5V8H16C17.1046 8 18 8.89543 18 10C18 11.1046 17.1046 12 16 12H10V14C10 15.6569 11.3431 17 13 17H16C17.1046 17 18 17.8954 18 19C18 20.1046 17.1046 21 16 21H13C9.13401 21 6 17.866 6 14V5C6 3.89543 6.89543 3 8 3Z" />
    </symbol>
</svg>
