<svg width="248" height="71" viewBox="0 0 248 71" fill="none" xmlns="http://www.w3.org/2000/svg">
<path d="M0 70.9994V41.3149C0 38.398 0.175175 36.1274 0.54062 34.515C0.890964 32.9116 1.492 31.4321 2.31048 30.0703C4.05163 27.155 6.61276 24.8723 9.96368 23.2357C13.3282 21.5871 17.0597 20.7612 21.1717 20.7612C27.2891 20.7612 32.3374 22.4325 36.318 25.7811C40.2835 29.1388 42.2739 33.3796 42.2739 38.5188C42.2739 40.8513 41.7755 43.0722 40.7955 45.2009C39.8154 47.3251 38.3808 49.2153 36.5219 50.876C34.6494 52.5986 32.3812 53.9348 29.7611 54.8814C27.126 55.8234 24.3746 56.3021 21.522 56.3021C19.4441 56.3021 17.4402 56.1088 15.5496 55.7268C13.6483 55.3328 11.8332 54.7485 10.1222 53.9574V47.3387C11.8332 48.4136 13.5759 49.2033 15.3472 49.7166C17.1306 50.2314 18.9322 50.4925 20.7609 50.4925C24.7853 50.4925 28.1061 49.3572 30.6974 47.1002C33.3023 44.828 34.6055 41.9248 34.6055 38.3754C34.6055 34.9226 33.3325 32.0783 30.785 29.8559C28.2389 27.6457 24.9907 26.5345 21.0101 26.5345C17.0446 26.5345 13.8099 27.6457 11.3213 29.8801C8.83412 32.1145 7.59131 35.0177 7.59131 38.6139V70.9994H0Z" fill="white"/>
<path d="M48.5314 55.8207V21.1465H55.5866V55.8207H48.5314Z" fill="white"/>
<path d="M88.4467 26.8274H85.2468C80.0686 26.8274 75.9355 27.8646 72.8518 29.9525C69.7682 32.039 68.2324 34.8139 68.2324 38.2773C68.2324 41.7255 69.7803 44.4883 72.8805 46.5778C75.9642 48.6643 80.0973 49.7014 85.2468 49.7014H88.4467V55.5653H84.7454C77.3837 55.5653 71.5033 53.9846 67.1135 50.8126C62.7387 47.6391 60.543 43.4255 60.543 38.1791C60.543 35.3469 61.3313 32.7033 62.8957 30.2545C64.4602 27.8057 66.6982 25.7434 69.581 24.0782C71.5894 22.9443 73.7413 22.1351 76.0079 21.6414C78.2746 21.1462 81.1876 20.8926 84.7454 20.8926H88.4467V26.8274Z" fill="white"/>
<path d="M124.21 56.073V38.7835C124.21 35.1525 123.047 32.2207 120.723 29.9651C118.399 27.708 115.377 26.5863 111.673 26.5863C107.982 26.5863 104.961 27.6959 102.596 29.9288C100.229 32.1618 99.0531 35.0318 99.0531 38.5404C99.0531 42.1245 100.27 45.0564 102.703 47.3482C105.124 49.6294 108.227 50.7754 111.986 50.7754C113.695 50.7754 115.364 50.5096 116.976 49.9918C118.588 49.4709 120.216 48.6753 121.844 47.5898V54.2734C120.244 55.069 118.549 55.6609 116.773 56.0595C115.009 56.4444 113.135 56.6392 111.194 56.6392C109.322 56.6392 107.463 56.387 105.631 55.8798C103.784 55.3725 102.116 54.6614 100.627 53.7435C97.7966 52.0179 95.6236 49.871 94.1316 47.2924C92.6427 44.7092 91.8906 41.8377 91.8906 38.6899C91.8906 33.5009 93.7496 29.2193 97.4554 25.8284C101.175 22.4496 105.891 20.7617 111.605 20.7617C115.365 20.7617 118.81 21.5936 121.928 23.2709C125.059 24.9482 127.464 27.24 129.145 30.1583C129.911 31.4869 130.472 32.9227 130.8 34.4898C131.144 36.0584 131.307 38.4 131.307 41.5086V56.073H124.21Z" fill="white"/>
<path d="M137.762 56.0736V37.54C137.762 32.6017 139.491 28.6899 142.966 25.8063C146.44 22.9242 151.052 21.4824 156.833 21.4824C162.614 21.4824 167.228 22.9242 170.668 25.8063C174.113 28.6899 175.825 32.6002 175.825 37.54V56.0721H167.879V36.4424C167.879 33.7596 166.852 31.5735 164.793 29.8947C162.754 28.2053 160.09 27.3659 156.833 27.3659C153.622 27.3659 150.957 28.2053 148.888 29.8947C146.798 31.5735 145.753 33.7596 145.753 36.4424V56.0721H137.762V56.0736Z" fill="white"/>
<path d="M182.305 12.4609H190V21.4756H202.98V27.2262H190V41.7877C190 44.5112 190.837 46.5102 192.508 47.7632C194.192 49.0299 196.862 49.6564 200.532 49.6564H202.98V55.478H200.443C194.387 55.478 189.837 54.4227 186.824 52.3196C183.812 50.2226 182.305 47.0521 182.305 42.8279V12.4609Z" fill="white"/>
<path d="M214.222 38.6174C214.222 41.9826 215.454 44.8406 217.929 47.1822C220.404 49.5343 223.391 50.7044 226.904 50.7044C230.416 50.7044 233.405 49.5343 235.88 47.1822C238.353 44.8406 239.587 41.9826 239.587 38.6174C239.587 35.2613 238.353 32.4245 235.893 30.0859C233.445 27.7578 230.445 26.5863 226.904 26.5863C223.391 26.5863 220.403 27.7578 217.929 30.0859C215.455 32.426 214.222 35.2613 214.222 38.6174ZM206.809 38.6884C206.809 36.2743 207.324 33.9946 208.346 31.8236C209.383 29.6526 210.863 27.6975 212.814 25.9597C214.72 24.2598 216.876 22.9689 219.27 22.0873C221.663 21.2071 224.209 20.7617 226.905 20.7617C229.601 20.7617 232.174 21.2071 234.608 22.0873C237.029 22.9689 239.199 24.2598 241.082 25.9597C243.004 27.6491 244.469 29.6028 245.479 31.7874C246.491 33.9825 247.002 36.2743 247.002 38.6884C247.002 41.1387 246.491 43.4652 245.479 45.6604C244.469 47.8691 243.004 49.8227 241.082 51.5106C239.199 53.2106 237.027 54.5044 234.608 55.3846C232.175 56.2633 229.602 56.7086 226.905 56.7086C224.208 56.7086 221.663 56.2633 219.27 55.3846C216.876 54.5044 214.719 53.2106 212.814 51.5106C210.863 49.7971 209.383 47.845 208.346 45.6498C207.324 43.4531 206.809 41.1387 206.809 38.6884Z" fill="white"/>
<path d="M38.4883 3.06354C42.9038 0.986135 47.1805 -0.0178761 51.5764 0.000240801C55.9179 0.0183577 60.3017 1.04047 64.9846 3.01521L62.5518 8.78846C58.6315 7.13529 55.033 6.27777 51.5522 6.26418C48.1242 6.25059 44.731 7.0613 41.1672 8.74013L38.4883 3.06354Z" fill="white"/>
</svg>