<svg width="400" height="318" viewBox="0 0 400 318" fill="none" xmlns="http://www.w3.org/2000/svg">
<path d="M28.7069 294.548V277.595H30.7812V285.29L38.6109 277.595H41.3094L32.7883 285.87L41.5996 294.548H38.6553L30.7812 286.651V294.548H28.7069Z" fill="black"/>
<path d="M47.7757 287.945H53.4862L50.6307 280.25L47.7757 287.945ZM43.2699 294.548L49.6713 277.595H51.7017L58.1258 294.548H55.9173L54.111 289.64H47.1509L45.3446 294.548H43.2699Z" fill="black"/>
<path d="M60.8441 277.595H62.8971V282.703C62.8971 285.759 64.6368 287.499 67.09 287.499C69.566 287.499 71.0826 285.982 71.8639 284.577V277.595H73.9159V294.548H71.8639V286.852C70.8373 288.034 69.2541 289.149 66.9341 289.149C63.1868 289.149 60.8441 286.405 60.8441 282.792V277.595Z" fill="black"/>
<path d="M78.8203 294.548V277.595H88.9246V279.29H80.8951V284.978H87.6977V286.674H80.8951V292.853H89.0583V294.548H78.8203Z" fill="black"/>
<path d="M92.4245 285.848C92.4245 280.785 95.7262 277.26 100.366 277.26C102.663 277.26 104.604 278.197 105.719 279.29V281.677C104.559 280.16 102.82 278.933 100.41 278.933C97.1756 278.933 94.6108 281.744 94.6108 285.848V286.272C94.6108 290.376 97.1756 293.209 100.366 293.209C102.73 293.209 104.559 292.005 105.719 290.465V292.875C104.581 293.945 102.618 294.883 100.344 294.883C95.7262 294.883 92.4245 291.335 92.4245 286.272V285.848Z" fill="black"/>
<path d="M108.727 279.29V277.595H121.196V279.29H115.999V294.548H113.946V279.29H108.727Z" fill="black"/>
<path d="M134.489 289.641C134.489 287.722 132.816 286.674 130.875 286.674H126.926V292.853H130.875C132.816 292.853 134.489 291.849 134.489 289.93V289.641ZM126.926 279.291V284.978H130.563C132.548 284.978 133.797 283.774 133.797 282.279V282.035C133.797 280.473 132.525 279.291 130.563 279.291H126.926ZM136.63 289.641V289.974C136.63 292.92 134.265 294.548 131.165 294.548H124.852V277.595H130.852C133.886 277.595 135.916 279.379 135.916 281.922V282.146C135.916 283.885 134.823 285.09 133.329 285.67C135.157 286.205 136.63 287.588 136.63 289.641Z" fill="black"/>
<path d="M142.137 286.25C142.137 290.376 144.345 293.21 147.78 293.21C151.238 293.21 153.423 290.376 153.423 286.25V285.804C153.423 281.699 151.238 278.934 147.78 278.934C144.345 278.934 142.137 281.699 142.137 285.804V286.25ZM139.973 285.804C139.973 280.829 143.051 277.261 147.78 277.261C152.531 277.261 155.61 280.829 155.61 285.804V286.25C155.61 291.247 152.531 294.883 147.78 294.883C143.051 294.883 139.973 291.247 139.973 286.25V285.804Z" fill="black"/>
<path d="M167.027 294.548V277.595H180.165V294.548H178.113V279.29H169.101V294.548H167.027Z" fill="black"/>
<path d="M186.52 286.25C186.52 290.376 188.728 293.21 192.163 293.21C195.621 293.21 197.807 290.376 197.807 286.25V285.804C197.807 281.699 195.621 278.934 192.163 278.934C188.728 278.934 186.52 281.699 186.52 285.804V286.25ZM184.357 285.804C184.357 280.829 187.434 277.261 192.163 277.261C196.915 277.261 199.993 280.829 199.993 285.804V286.25C199.993 291.247 196.915 294.883 192.163 294.883C187.434 294.883 184.357 291.247 184.357 286.25V285.804Z" fill="black"/>
<path d="M214.511 292.852V279.29H208.689C208.667 285.96 207.819 289.974 206.124 292.852H214.511ZM202.733 298.117V292.852H204.049C205.588 290.265 206.614 286.317 206.614 279.379V277.595H216.586V292.852H218.326V298.117H216.407V294.548H204.651V298.117H202.733Z" fill="black"/>
<path d="M220.553 279.29V277.595H233.022V279.29H227.824V294.548H225.773V279.29H220.553Z" fill="black"/>
<path d="M246.314 289.641C246.314 287.722 244.641 286.674 242.7 286.674H238.752V292.853H242.7C244.641 292.853 246.314 291.849 246.314 289.93V289.641ZM238.752 279.291V284.978H242.388C244.373 284.978 245.622 283.774 245.622 282.279V282.035C245.622 280.473 244.351 279.291 242.388 279.291H238.752ZM248.456 289.641V289.974C248.456 292.92 246.091 294.548 242.99 294.548H236.678V277.595H242.678C245.712 277.595 247.742 279.379 247.742 281.922V282.146C247.742 283.885 246.648 285.09 245.154 285.67C246.983 286.205 248.456 287.588 248.456 289.641Z" fill="black"/>
<path d="M252.513 294.548V277.595H262.617V279.29H254.587V284.978H261.39V286.674H254.587V292.853H262.751V294.548H252.513Z" fill="black"/>
<path d="M269.061 285.848H272.876C275.218 285.848 276.601 284.599 276.601 282.725V282.391C276.601 280.54 275.218 279.267 272.876 279.267H269.061V285.848ZM266.986 294.548V277.595H273.098C276.489 277.595 278.743 279.58 278.743 282.391V282.748C278.743 285.558 276.489 287.543 273.098 287.543H269.061V294.548H266.986Z" fill="black"/>
<path d="M281.082 294.548L288.71 285.87L281.372 277.595H283.87L290.629 285.313V277.595H292.681V285.313L299.439 277.595H301.938L294.599 285.87L302.228 294.548H299.506L292.681 286.607V294.548H290.629V286.607L283.825 294.548H281.082Z" fill="black"/>
<path d="M315.854 292.852V279.29H310.032C310.009 285.96 309.162 289.974 307.467 292.852H315.854ZM304.076 298.117V292.852H305.391C306.931 290.265 307.957 286.317 307.957 279.379V277.595H317.928V292.852H319.667V298.117H317.75V294.548H305.994V298.117H304.076Z" fill="black"/>
<path d="M323.123 294.548V277.595H333.227V279.29H325.197V284.978H332V286.674H325.197V292.853H333.361V294.548H323.123Z" fill="black"/>
<path d="M337.597 294.548V277.595H339.671V284.978H349.129V277.595H351.181V294.548H349.129V286.674H339.671V294.548H337.597Z" fill="black"/>
<path d="M357.535 286.25C357.535 290.376 359.743 293.21 363.179 293.21C366.636 293.21 368.822 290.376 368.822 286.25V285.804C368.822 281.699 366.636 278.934 363.179 278.934C359.743 278.934 357.535 281.699 357.535 285.804V286.25ZM355.372 285.804C355.372 280.829 358.45 277.261 363.179 277.261C367.929 277.261 371.008 280.829 371.008 285.804V286.25C371.008 291.247 367.929 294.883 363.179 294.883C358.45 294.883 355.372 291.247 355.372 286.25V285.804Z" fill="black"/>
<path d="M35.6661 3.30734C17.824 3.30734 3.30734 17.8235 3.30734 35.6661V281.445C3.30734 299.286 17.824 313.803 35.6661 313.803H364.335C382.178 313.803 396.693 299.286 396.693 281.445V35.6661C396.693 17.8235 382.178 3.30734 364.335 3.30734H35.6661ZM364.335 317.11H35.6661C15.9992 317.11 0 301.111 0 281.445V35.6661C0 16.0002 15.9992 -3.05176e-05 35.6661 -3.05176e-05H364.335C384.001 -3.05176e-05 400 16.0002 400 35.6661V281.445C400 301.111 384.001 317.11 364.335 317.11Z" fill="#161D26"/>
<path d="M398.346 258.901H1.65424V255.594H398.346V258.901Z" fill="#161D26"/>
<path d="M45.4022 154.272C45.8963 154.5 46.6569 154.652 47.3411 154.652C49.9643 154.652 51.2196 153.246 51.4855 146.136L52.0938 129.407H70.9134V158.302H65.7807V133.589H57.036L56.5418 147.695C56.1999 157.199 51.6373 158.873 47.3793 158.873C46.7328 158.873 45.9345 158.759 45.4022 158.492V154.272Z" fill="#161D26"/>
<path d="M77.1467 158.303V129.408H95.3967V133.59H82.2794V141.346H93.2677V145.528H82.2794V154.082H95.5867V158.303H77.1467Z" fill="#161D26"/>
<path d="M98.5506 133.589V129.407H121.325V133.589H112.542V158.302H107.409V133.589H98.5506Z" fill="#161D26"/>
<path d="M140.598 158.303V129.408H157.707V133.59H145.73V158.303H140.598Z" fill="#161D26"/>
<path d="M166.032 146.288H174.32L170.176 135.111L166.032 146.288ZM156.565 158.303L167.591 129.408H173.256L184.319 158.303H178.769L175.841 150.432H164.511L161.584 158.303H156.565Z" fill="#161D26"/>
<path d="M193.138 142.829H198.841C201.731 142.829 203.746 141.156 203.746 138.456V137.886C203.746 135.186 201.731 133.513 198.841 133.513H193.138V142.829ZM188.006 158.303V129.408H199.602C204.962 129.408 209.183 132.449 209.183 137.886V138.494C209.183 143.931 204.962 146.973 199.602 146.973H193.138V158.303H188.006Z" fill="#161D26"/>
<path d="M218.268 146.288H226.556L222.411 135.111L218.268 146.288ZM208.8 158.303L219.827 129.408H225.492L236.555 158.303H231.004L228.077 150.432H216.747L213.82 158.303H208.8Z" fill="#161D26"/>
<path d="M240.241 158.303V129.408H245.374V141.27H260.012V129.408H265.145V158.303H260.012V145.452H245.374V158.303H240.241Z" fill="#161D26"/>
<path d="M269.21 133.589V129.407H291.984V133.589H283.202V158.302H278.069V133.589H269.21Z" fill="#161D26"/>
<path d="M296.05 158.303V129.408H301.145V151.003L314.072 129.408H320.155V158.303H315.022V136.821L302.134 158.303H296.05Z" fill="#161D26"/>
<path d="M326.388 158.303V129.408H331.483V151.003L344.41 129.408H350.493V158.303H345.36V136.821L332.471 158.303H326.388Z" fill="#161D26"/>
<path d="M305.167 24.3073L137.771 24.079C136.397 24.077 135.202 25.0219 134.886 26.3604L118.029 97.9596C117.369 103.798 117.586 119.837 139.942 119.837C144.138 119.837 146.985 119.956 148.805 120.157H291.566C270.716 95.4763 216.57 96.7693 201.394 97.657C199.408 97.7731 197.88 95.9318 198.352 93.9995L202.765 75.9349C203.089 74.6088 204.279 73.6758 205.644 73.6778L293.975 73.8018C295.328 73.8033 296.51 72.8883 296.846 71.5777L308.03 28.0029C308.51 26.1321 307.098 24.3098 305.167 24.3073Z" fill="#161D26"/>
<path d="M203.706 167.289C198.599 173.49 189.213 178.258 172.153 178.258H99.1243L86.5734 231.566C86.1356 233.424 87.5458 235.204 89.4543 235.204H176.848C237.306 235.204 283.252 211.87 296.23 167.289H203.706Z" fill="#161D26"/>
</svg>