<svg width="20" height="20" viewBox="0 0 20 20" fill="none" xmlns="http://www.w3.org/2000/svg">
<path fill-rule="evenodd" clip-rule="evenodd" d="M10 1.5C5.30558 1.5 1.5 5.30558 1.5 10C1.5 14.6944 5.30558 18.5 10 18.5C14.6944 18.5 18.5 14.6944 18.5 10C18.5 5.30558 14.6944 1.5 10 1.5ZM0 10C0 4.47715 4.47715 0 10 0C15.5228 0 20 4.47715 20 10C20 15.5228 15.5228 20 10 20C4.47715 20 0 15.5228 0 10ZM11 15V8.5H9V15H11ZM11.25 6.25C11.25 6.94036 10.6904 7.5 10 7.5C9.30964 7.5 8.75 6.94036 8.75 6.25C8.75 5.55964 9.30964 5 10 5C10.6904 5 11.25 5.55964 11.25 6.25Z"/>
</svg>
