<svg width="30" height="30" viewBox="0 0 30 30" fill="none" xmlns="http://www.w3.org/2000/svg" preserveAspectRatio="xMidYMid" class="showroom-fullscreen__three-sixty-icon">
<path d="M9.724 9.472c0-1.584-.912-2.28-2.82-2.28-.6 0-1.632.18-2.268.468v1.296c.816-.276 1.5-.396 2.268-.384.864.012 1.164.336 1.164.924 0 1.056-.948 1.284-1.752 1.284H5.68v1.392h.636c1.212 0 2.064.228 2.064 1.332-.036.816-.42 1.212-1.476 1.212-.768 0-1.344-.06-2.556-.348v1.308a8.962 8.962 0 002.7.444c1.848 0 2.988-.792 2.988-2.616 0-1.26-.552-1.896-1.416-2.196.672-.372 1.104-.96 1.104-1.836zM14.343 14.788c-1.488 0-1.584-1.2-1.584-2.988a5.527 5.527 0 011.572-.252c.972 0 1.38.384 1.38 1.548 0 1.116-.324 1.692-1.368 1.692zm.324-6.228c.612 0 1.308.108 2.124.312V7.6a7.966 7.966 0 00-2.436-.408c-1.668 0-3.264.744-3.264 4.764 0 2.628.912 4.176 3.264 4.176 2.064 0 3.012-1.272 3.012-3.156 0-1.776-.96-2.808-2.736-2.808-.528 0-1.176.096-1.836.3.132-1.548.924-1.908 1.872-1.908zM21.62 16.132c1.968 0 3.132-1.344 3.132-4.428 0-3.084-1.164-4.512-3.132-4.512-1.968 0-3.12 1.428-3.12 4.512 0 3.096 1.152 4.428 3.12 4.428zm0-1.344c-1.116 0-1.464-1.008-1.464-3.084 0-2.028.348-3.168 1.464-3.168s1.476 1.14 1.476 3.168c0 2.076-.36 3.084-1.476 3.084z" fill="currentColor"/>
<path d="M15 23c-7.732 0-14-2.727-14-6.09 0-1.263.885-2.437 2.4-3.41m17.667 8.9C25.76 21.417 29 19.328 29 16.91c0-1.263-.885-2.437-2.4-3.41" stroke="currentColor" stroke-width="1.5"/>
<circle cx="27.5" cy="6.5" r="1.75" stroke="currentColor" stroke-width="1.5"/>
<path d="M12 19l4 4-4 4" stroke="currentColor" stroke-width="1.5"/>
</svg>