<svg width="46" height="46" viewBox="0 0 46 46" fill="none" xmlns="http://www.w3.org/2000/svg">
<path fill-rule="evenodd" clip-rule="evenodd" d="M4.18182 2.19048H41.8182C42.973 2.19048 43.9091 3.17119 43.9091 4.38095V41.619C43.9091 42.8288 42.973 43.8095 41.8182 43.8095H4.18182C3.02704 43.8095 2.09091 42.8288 2.09091 41.619V4.38095C2.09091 3.17119 3.02704 2.19048 4.18182 2.19048ZM0 4.38095C0 1.96142 1.87226 0 4.18182 0H41.8182C44.1277 0 46 1.96142 46 4.38095V41.619C46 44.0385 44.1277 46 41.8182 46H4.18182C1.87226 46 0 44.0385 0 41.619V4.38095ZM29.9783 20.8097H27.8518L28.9433 16.2163H31.6719L29.9783 20.8097ZM26.8168 20.8097H24.6904L25.7818 16.2163H28.5105L26.8168 20.8097ZM18.4941 30.6669H15.7655L21.1851 18.6215H15.088V16.3346H24.0455V18.2863L18.4941 30.6669Z" fill="white"/>
</svg>