<svg width="46" height="46" viewBox="0 0 46 46" fill="none" xmlns="http://www.w3.org/2000/svg">
<path fill-rule="evenodd" clip-rule="evenodd" d="M37.5691 13.6111C35.1486 9.61157 37.9689 4.1958 42.9299 4.1958H44.3954H45.6724L45.4485 5.45312L38.495 44.4996L38.338 45.3818H37.4419H1.06977H0V44.3121V41.9371C0 37.079 4.03916 33.1951 8.89351 33.3855L27.4458 34.113C27.5056 33.7725 27.5835 33.3503 27.6809 32.8618C27.9492 31.516 28.3664 29.662 28.963 27.6295C30.14 23.6191 32.0725 18.705 35.0864 15.736C35.7089 15.1228 36.5472 14.4259 37.2095 13.8961C37.3354 13.7954 37.4561 13.6999 37.5691 13.6111ZM39.0465 13.8237L39.6869 14.6806L39.6868 14.6807L39.6859 14.6813L39.6821 14.6842L39.666 14.6963L39.6016 14.7448C39.5452 14.7874 39.4628 14.8501 39.36 14.9291C39.1541 15.0871 38.8676 15.3096 38.5459 15.567C37.8942 16.0883 37.1278 16.7284 36.588 17.2602C33.9924 19.8171 32.1806 24.2633 31.0159 28.2321C30.4415 30.189 30.0385 31.9791 29.7792 33.2801C29.6497 33.93 29.5563 34.4562 29.4955 34.8182C29.4651 34.9992 29.443 35.1391 29.4286 35.2327C29.4213 35.2796 29.416 35.3148 29.4126 35.3379L29.4089 35.3632L29.408 35.3689L29.4079 35.3699V35.37V35.3701L29.2718 36.3258L28.3069 36.2879L8.80964 35.5234C5.1689 35.3806 2.13953 38.2935 2.13953 41.9371V43.2423H36.5457L43.1183 6.33534H42.9299C39.4156 6.33534 37.5374 10.4745 39.8516 13.1192L39.0465 13.8237Z" fill="white"/>
<path d="M17.7601 4.81818L15.6887 4.28248C11.1128 3.09905 6.44383 5.84927 5.2604 10.4252L3.92116 15.6037C2.73773 20.1797 5.48794 24.8486 10.0639 26.032L12.1353 26.5677C16.7113 27.7511 21.3802 25.0009 22.5636 20.425L23.9028 15.2465C25.0863 10.6705 22.336 6.00161 17.7601 4.81818Z" stroke="white" stroke-width="2"/>
<path d="M33.1628 40.8354C34.4921 40.8354 35.5698 39.7579 35.5698 38.4285C35.5698 37.0992 34.4921 36.0215 33.1628 36.0215C31.8335 36.0215 30.7559 37.0992 30.7559 38.4285C30.7559 39.7579 31.8335 40.8354 33.1628 40.8354Z" stroke="white" stroke-width="1.5"/>
</svg>