<svg width="30" height="30" viewBox="0 0 30 30" fill="none"
    xmlns="http://www.w3.org/2000/svg">
    <circle cx="15" cy="15" r="14.25" stroke="white" stroke-width="1.5"/>
    <path fill-rule="evenodd" clip-rule="evenodd" d="M20.403 11.1434C20.7626 11.5155 20.88 12.3605 20.88 12.3605C20.88 12.3605 21 13.353 21 14.3452V15.2756C21 16.2681 20.88 17.2603 20.88 17.2603C20.88 17.2603 20.7626 18.1053 20.403 18.4774C19.9918 18.9176 19.5359 18.963 19.2783 18.9887C19.2499 18.9916 19.224 18.9942 19.2008 18.997C17.5215 19.1212 15 19.125 15 19.125C15 19.125 11.88 19.0959 10.92 19.0016C10.8745 18.9929 10.8194 18.9862 10.7569 18.9785C10.4528 18.9412 9.97557 18.8827 9.59662 18.4774C9.237 18.1053 9.12 17.2603 9.12 17.2603C9.12 17.2603 9 16.2681 9 15.2756V14.3452C9 13.353 9.12 12.3605 9.12 12.3605C9.12 12.3605 9.237 11.5155 9.59662 11.1434C10.0087 10.7026 10.465 10.6576 10.7227 10.6322C10.7507 10.6295 10.7763 10.6269 10.7992 10.6242C12.4785 10.5 14.9974 10.5 14.9974 10.5H15.0026C15.0026 10.5 17.5215 10.5 19.2008 10.6242C19.2237 10.6269 19.2493 10.6295 19.2773 10.6322C19.5348 10.6576 19.9913 10.7027 20.403 11.1434ZM13.7594 12.9577L13.7598 16.4032L17.0017 14.6864L13.7594 12.9577Z" fill="white"/>
</svg>
